<svg xmlns="http://www.w3.org/2000/svg" id="svg5" width="415.092" height="77.3" version="1.1" viewBox="0 0 109.826 20.452"><defs id="defs2"><style id="style991">.cls-1{fill:#5c068c}</style></defs><g id="layer1" transform="translate(-42.847 -122.74)"><g id="g1879" transform="matrix(.26458 0 0 .26458 30.994 112.19)"><path id="polygon1722" d="M87.7 84.7 102 71v-.6H87.7V39.9h-.6l-14 13.5v17H59.4V39.9h-.7L44.8 53.4v31.3h14.6l13.7-13.2v13.2h11.6z" class="cls-1"/><path id="path1724" d="M119.74 84.77a4.78 4.78 0 0 0 6.23 0 4.39 4.39 0 0 0 1.13-3.21v-8.3h1.58v8.3a5.85 5.85 0 1 1-11.68.68v-8.98h1.6v8.3a4.36 4.36 0 0 0 1.14 3.21z" class="cls-1"/><path id="path1726" d="M141 77.78a4.14 4.14 0 0 1 1.06 3v6.48h-1.57v-6.07a3 3 0 0 0-.79-2.2 2.88 2.88 0 0 0-2.18-.8 3.39 3.39 0 0 0-2.48 1 4 4 0 0 0-1 2.44v5.64h-1.6V76.75H134v2.32a4.12 4.12 0 0 1 4-2.37 4 4 0 0 1 3 1.08z" class="cls-1"/><path id="path1728" d="M147 73a1.11 1.11 0 0 1 .29.78 1 1 0 0 1-.29.75 1 1 0 0 1-.74.3 1 1 0 0 1-.72-.3 1 1 0 0 1-.29-.75 1.11 1.11 0 0 1 .29-.78 1 1 0 0 1 1.46 0zm-1.49 3.79h1.54v10.48h-1.54z" class="cls-1"/><path id="path1730" d="M149 76.75h1.66l3.34 8.94 3.34-8.94H159l-4.14 10.52h-1.66z" class="cls-1"/><path id="path1732" d="M168.38 78.28a6.26 6.26 0 0 1 1.15 4.31h-8.6a3.83 3.83 0 0 0 1.24 2.5 3.71 3.71 0 0 0 2.58.94 4.81 4.81 0 0 0 1.8-.35 4.32 4.32 0 0 0 1.46-1l.86.9a5.17 5.17 0 0 1-1.87 1.3 6.12 6.12 0 0 1-2.39.45 5.44 5.44 0 0 1-2.73-.67 4.59 4.59 0 0 1-1.88-1.88 5.69 5.69 0 0 1-.66-2.77 5.61 5.61 0 0 1 .66-2.75 4.74 4.74 0 0 1 1.85-1.89 5.34 5.34 0 0 1 2.71-.67 4.54 4.54 0 0 1 3.82 1.58zm-.25 3.07a3.32 3.32 0 0 0-3.28-3.35h-.24a3.63 3.63 0 0 0-2.52.91 3.71 3.71 0 0 0-1.16 2.45z" class="cls-1"/><path id="path1734" d="M175.25 77.33a4.3 4.3 0 0 1 2.29-.63v1.51a3.63 3.63 0 0 0-2.63.91 3.87 3.87 0 0 0-1.15 2.56v5.59h-1.55V76.75h1.55v2.34a4 4 0 0 1 1.49-1.76z" class="cls-1"/><path id="path1736" d="M183.82 78.21a5.7 5.7 0 0 0-1.48-.22 2.92 2.92 0 0 0-1.51.35 1.19 1.19 0 0 0-.57 1.07 1.13 1.13 0 0 0 .32.82 2.19 2.19 0 0 0 .8.51q.48.2 1.32.45a14.22 14.22 0 0 1 1.79.66 3.2 3.2 0 0 1 1.17.92 2.43 2.43 0 0 1 .48 1.58 2.51 2.51 0 0 1-1.14 2.22 4.71 4.71 0 0 1-2.75.76 6.45 6.45 0 0 1-2.22-.39 5.27 5.27 0 0 1-1.82-1.08l.6-1.15a5.07 5.07 0 0 0 1.61 1 5.29 5.29 0 0 0 1.89.36 3 3 0 0 0 1.62-.4 1.31 1.31 0 0 0 .63-1.18 1.21 1.21 0 0 0-.62-1.14 7.83 7.83 0 0 0-1.88-.74 12.47 12.47 0 0 1-1.71-.63 3 3 0 0 1-1.13-.88 2.29 2.29 0 0 1-.48-1.53 2.48 2.48 0 0 1 1-2.15 4.53 4.53 0 0 1 2.63-.72 6.24 6.24 0 0 1 3.36 1l-.6 1.2a5.89 5.89 0 0 0-1.31-.69z" class="cls-1"/><path id="path1738" d="M190.18 73a1.07 1.07 0 0 1 .29.78 1 1 0 0 1-1.7.8h-.05a1 1 0 0 1-.29-.75 1.11 1.11 0 0 1 .29-.78 1 1 0 0 1 1.46 0zm-1.48 3.79h1.53v10.48h-1.53z" class="cls-1"/><path id="path1740" d="M203.71 72.43v14.84h-1.57V85a4.18 4.18 0 0 1-1.64 1.72 4.81 4.81 0 0 1-2.46.61 5.08 5.08 0 0 1-2.64-.68 4.7 4.7 0 0 1-1.8-1.9A6 6 0 0 1 193 82a5.81 5.81 0 0 1 .64-2.77 4.78 4.78 0 0 1 1.8-1.88 5.11 5.11 0 0 1 2.62-.66 5 5 0 0 1 2.47.6 4 4 0 0 1 1.61 1.71v-6.6zm-3.4 13.07a3.62 3.62 0 0 0 1.35-1.42 4.64 4.64 0 0 0 0-4.11 3.64 3.64 0 0 0-1.35-1.43 4.06 4.06 0 0 0-3.94 0A3.57 3.57 0 0 0 195 80a4.53 4.53 0 0 0 0 4.06 3.51 3.51 0 0 0 1.36 1.42 4.06 4.06 0 0 0 3.94 0z" class="cls-1"/><path id="path1742" d="M214.14 87.27v-1.64a4.51 4.51 0 0 1-3.86 1.7 4 4 0 0 1-1.88-.42 3.15 3.15 0 0 1-1.26-1.14 3 3 0 0 1-.45-1.61 2.65 2.65 0 0 1 1-2.2 4.72 4.72 0 0 1 2.91-.83h3.46v-.66a2.37 2.37 0 0 0-.72-1.83 3.09 3.09 0 0 0-2.11-.65 5.88 5.88 0 0 0-3.34 1.22l-.65-1.1a10.63 10.63 0 0 1 2.11-1.11 6.74 6.74 0 0 1 2.23-.33 4.32 4.32 0 0 1 3 1 3.49 3.49 0 0 1 1.07 2.66v7zm-1.27-1.87a3 3 0 0 0 1.25-1.75v-1.28h-3.29c-1.78 0-2.67.57-2.67 1.72a1.72 1.72 0 0 0 .66 1.41 2.77 2.77 0 0 0 1.76.53 4.1 4.1 0 0 0 2.29-.63z" class="cls-1"/><path id="path1744" d="M228.81 72.43v14.84h-1.56V85a4.31 4.31 0 0 1-1.64 1.72 4.81 4.81 0 0 1-2.46.61 5.08 5.08 0 0 1-2.64-.68 4.7 4.7 0 0 1-1.8-1.9 6.34 6.34 0 0 1 0-5.55 4.76 4.76 0 0 1 1.79-1.88 5.14 5.14 0 0 1 2.63-.66 5 5 0 0 1 2.47.6 4 4 0 0 1 1.65 1.74v-6.6zm-3.39 13.07a3.52 3.52 0 0 0 1.34-1.42 4.58 4.58 0 0 0 0-4.11 3.55 3.55 0 0 0-1.34-1.43 4.06 4.06 0 0 0-3.94 0 3.61 3.61 0 0 0-1.36 1.46 4.45 4.45 0 0 0 0 4.06 3.51 3.51 0 0 0 1.36 1.42 4.06 4.06 0 0 0 3.94 0z" class="cls-1"/><path id="path1746" d="M248.38 72.43v14.84h-1.56V85a4.21 4.21 0 0 1-1.65 1.72 4.77 4.77 0 0 1-2.45.61 5.08 5.08 0 0 1-2.64-.68 4.7 4.7 0 0 1-1.8-1.9 6.34 6.34 0 0 1 0-5.55 4.76 4.76 0 0 1 1.79-1.88 5.14 5.14 0 0 1 2.63-.66 5 5 0 0 1 2.47.6 4 4 0 0 1 1.65 1.74v-6.6ZM245 85.5a3.42 3.42 0 0 0 1.35-1.42 4.58 4.58 0 0 0 0-4.11 3.45 3.45 0 0 0-1.35-1.43 4.18 4.18 0 0 0-4 0 3.62 3.62 0 0 0-1.31 1.46 4.33 4.33 0 0 0 0 4 3.51 3.51 0 0 0 1.36 1.42 3.8 3.8 0 0 0 2 .51 3.67 3.67 0 0 0 1.95-.43z" class="cls-1"/><path id="path1748" d="M260.21 78.28a6.2 6.2 0 0 1 1.14 4.31h-8.59a3.82 3.82 0 0 0 1.23 2.5 3.74 3.74 0 0 0 2.59.94 4.79 4.79 0 0 0 1.79-.35 4.46 4.46 0 0 0 1.47-1l.86.9a5.2 5.2 0 0 1-1.85 1.29 6.12 6.12 0 0 1-2.39.45 5.45 5.45 0 0 1-2.74-.67 4.78 4.78 0 0 1-1.85-1.88 5.69 5.69 0 0 1-.66-2.77 5.61 5.61 0 0 1 .66-2.75 4.8 4.8 0 0 1 1.85-1.89 5.38 5.38 0 0 1 2.72-.67 4.52 4.52 0 0 1 3.77 1.59zm-.21 3.07a3.49 3.49 0 0 0-1-2.45 3.44 3.44 0 0 0-2.48-.91 3.58 3.58 0 0 0-2.52.91 3.64 3.64 0 0 0-1.16 2.45z" class="cls-1"/><path id="path1750" d="M270.25 73.27h1.6v12.52H278v1.48h-7.74z" class="cls-1"/><path id="path1752" d="M286.9 87.27v-1.64a4.49 4.49 0 0 1-3.86 1.7 4.07 4.07 0 0 1-1.88-.42 3.15 3.15 0 0 1-1.26-1.14 3 3 0 0 1-.44-1.61 2.65 2.65 0 0 1 1-2.2 4.69 4.69 0 0 1 2.9-.83h3.46v-.66a2.37 2.37 0 0 0-.72-1.83A3.05 3.05 0 0 0 284 78a5.81 5.81 0 0 0-3.34 1.22l-.66-1.1a10.67 10.67 0 0 1 2.11-1.12 7 7 0 0 1 2.23-.33 4.25 4.25 0 0 1 3 1 3.49 3.49 0 0 1 1.07 2.66v7zm-1.27-1.87a3 3 0 0 0 1.25-1.75v-1.28h-3.28c-1.79 0-2.68.57-2.68 1.72a1.72 1.72 0 0 0 .66 1.41 2.77 2.77 0 0 0 1.76.53 4 4 0 0 0 2.29-.63z" class="cls-1"/><path id="path1754" d="M298.11 73.27h1.6v12.52h6.14v1.48h-7.74z" class="cls-1"/><path id="path1756" d="M314.76 87.27v-1.64a4.49 4.49 0 0 1-3.86 1.7 4.07 4.07 0 0 1-1.88-.42 3.15 3.15 0 0 1-1.26-1.14 3 3 0 0 1-.44-1.61 2.65 2.65 0 0 1 1-2.2 4.69 4.69 0 0 1 2.9-.83h3.46v-.66a2.37 2.37 0 0 0-.72-1.83 3 3 0 0 0-2.1-.65 5.81 5.81 0 0 0-3.34 1.22l-.66-1.1A10.86 10.86 0 0 1 310 77a7 7 0 0 1 2.23-.33 4.25 4.25 0 0 1 3 1 3.49 3.49 0 0 1 1.07 2.66v7zm-1.27-1.87a3 3 0 0 0 1.25-1.75v-1.28h-3.28c-1.79 0-2.68.57-2.68 1.72a1.72 1.72 0 0 0 .66 1.41 2.8 2.8 0 0 0 1.77.53 4 4 0 0 0 2.28-.63z" class="cls-1"/><path id="path1758" d="M328.94 76.75v9.42a5.25 5.25 0 0 1-.66 2.66 4.54 4.54 0 0 1-1.86 1.75 6.1 6.1 0 0 1-2.78.61 7 7 0 0 1-4.32-1.54l.71-1.14a5.61 5.61 0 0 0 1.66 1 5.09 5.09 0 0 0 1.89.33 3.88 3.88 0 0 0 2.77-1 3.55 3.55 0 0 0 1-2.66v-1.56a3.89 3.89 0 0 1-1.56 1.63 5.09 5.09 0 0 1-4.81-.09 4.4 4.4 0 0 1-1.7-1.8 6 6 0 0 1 0-5.25 4.46 4.46 0 0 1 1.72-1.78 4.94 4.94 0 0 1 2.52-.63 4.47 4.47 0 0 1 2.29.56 4.1 4.1 0 0 1 1.57 1.63v-2.14zm-3.3 8.3a3.24 3.24 0 0 0 1.28-1.34 4.34 4.34 0 0 0 0-3.88 3.46 3.46 0 0 0-1.28-1.35 3.61 3.61 0 0 0-1.87-.49 3.53 3.53 0 0 0-1.85.48 3.35 3.35 0 0 0-1.29 1.35 4.26 4.26 0 0 0 0 3.9 3.24 3.24 0 0 0 1.29 1.33 3.53 3.53 0 0 0 1.85.48 3.6 3.6 0 0 0 1.87-.48z" class="cls-1"/><path id="path1760" d="M341.61 76.75v10.52h-1.56v-2.38a4 4 0 0 1-4 2.44 3.8 3.8 0 0 1-2.89-1.1 4.17 4.17 0 0 1-1.05-3v-6.48h1.56v6.08a3 3 0 0 0 .78 2.2 2.84 2.84 0 0 0 2.14.81 3.25 3.25 0 0 0 2.54-1.11 4.19 4.19 0 0 0 .92-2.82v-5.16z" class="cls-1"/><path id="path1762" d="M354 77.78a4.14 4.14 0 0 1 1.06 3v6.48h-1.56v-6.07a2.75 2.75 0 0 0-2.47-3 2.35 2.35 0 0 0-.53 0 3.36 3.36 0 0 0-2.47 1 3.84 3.84 0 0 0-1 2.44v5.64h-1.56V76.75H347v2.32a4.11 4.11 0 0 1 4.08-2.37 3.9 3.9 0 0 1 2.92 1.08z" class="cls-1"/><path id="path1764" d="M365.06 87.27v-1.64a4.48 4.48 0 0 1-3.85 1.7 4 4 0 0 1-1.88-.42 3 3 0 0 1-1.26-1.14 3 3 0 0 1-.45-1.61 2.65 2.65 0 0 1 1-2.2 4.7 4.7 0 0 1 2.91-.83H365v-.66a2.37 2.37 0 0 0-.71-1.83 3.08 3.08 0 0 0-2.09-.64 5.88 5.88 0 0 0-3.34 1.22l-.65-1.1a10.36 10.36 0 0 1 2.07-1.12 7 7 0 0 1 2.22-.33 4.32 4.32 0 0 1 3 1 3.49 3.49 0 0 1 1.07 2.66v7zm-1.27-1.87a3.05 3.05 0 0 0 1.21-1.75v-1.28h-3.28c-1.78 0-2.67.57-2.67 1.72a1.72 1.72 0 0 0 .66 1.41 2.72 2.72 0 0 0 1.76.53 4 4 0 0 0 2.32-.63z" class="cls-1"/><path id="path1766" d="M125.23 46.7a3.9 3.9 0 0 0-1.86-.51 3.63 3.63 0 0 0-1.93.53 3.93 3.93 0 0 0-1.37 1.46 4.23 4.23 0 0 0-.5 2.07 4.17 4.17 0 0 0 .5 2.07 3.78 3.78 0 0 0 1.37 1.46 3.58 3.58 0 0 0 1.93.54 4.32 4.32 0 0 0 1.8-.44 5.87 5.87 0 0 0 1.68-1.2L129 55a8.77 8.77 0 0 1-2.71 1.92 7.59 7.59 0 0 1-3.11.71 7.43 7.43 0 0 1-3.76-1 7.09 7.09 0 0 1-2.65-2.63 7.26 7.26 0 0 1-1-3.72 7 7 0 0 1 3.71-6.28 7.87 7.87 0 0 1 3.83-.93 8 8 0 0 1 5.69 2.45l-2.12 2.56a5.34 5.34 0 0 0-1.65-1.38z" class="cls-1"/><path id="path1768" d="M138.79 47.41a3.63 3.63 0 0 1 1.26 2.88v7h-3.5v-1.18a3.89 3.89 0 0 1-3.26 1.38 3.79 3.79 0 0 1-2.71-.93 3.19 3.19 0 0 1-1-2.45 2.88 2.88 0 0 1 1.07-2.4 4.86 4.86 0 0 1 3.07-.88h2.82v-.12a1.45 1.45 0 0 0-.53-1.2 2.44 2.44 0 0 0-1.53-.42 6.41 6.41 0 0 0-1.53.22 9.15 9.15 0 0 0-1.71.64l-1-2.39a14.5 14.5 0 0 1 2.53-.89 10.91 10.91 0 0 1 2.51-.29 5.29 5.29 0 0 1 3.51 1.03zm-3 7.28a1.67 1.67 0 0 0 .76-1v-.94h-2.12c-1 0-1.5.38-1.5 1.13a1.12 1.12 0 0 0 .39.89 1.61 1.61 0 0 0 1.07.33 2.52 2.52 0 0 0 1.4-.41zm-.12-12.76 2.94 1.13-2.9 2.29-2.44-.19z" class="cls-1"/><path id="path1770" d="M149.48 56.78a5.36 5.36 0 0 1-1.38.53 7 7 0 0 1-1.58.18 3.62 3.62 0 0 1-2.59-.92 3.29 3.29 0 0 1-1-2.54V49.4h-1.5V47h1.5v-3h3.54v3h2.8v2.4h-2.8v4.08c0 .76.31 1.14.94 1.13a3.76 3.76 0 0 0 1.39-.35z" class="cls-1"/><path id="path1772" d="M159.93 48a6.12 6.12 0 0 1 1.42 4.29 5.28 5.28 0 0 1 0 .63h-7.52a2.7 2.7 0 0 0 .9 1.41 2.5 2.5 0 0 0 1.57.5 3.46 3.46 0 0 0 1.34-.28 3.77 3.77 0 0 0 1.19-.83l1.86 1.87a5.49 5.49 0 0 1-2 1.42 7 7 0 0 1-2.69.49 6.4 6.4 0 0 1-3-.68 4.67 4.67 0 0 1-2-1.92 5.79 5.79 0 0 1-.69-2.88 6.07 6.07 0 0 1 .7-2.93 4.8 4.8 0 0 1 2-1.95 6.13 6.13 0 0 1 3-.69 5.22 5.22 0 0 1 3.92 1.55zm-2 3a2.11 2.11 0 0 0-.55-1.51 2.12 2.12 0 0 0-2.87 0 2.7 2.7 0 0 0-.74 1.53z" class="cls-1"/><path id="path1774" d="M174.08 42.49v14.84h-3.56v-1.39a3.57 3.57 0 0 1-1.36 1.15 4.35 4.35 0 0 1-1.84.38 4.91 4.91 0 0 1-2.64-.7 4.68 4.68 0 0 1-1.77-2 6.54 6.54 0 0 1-.63-2.93 6.44 6.44 0 0 1 .62-2.84 4.63 4.63 0 0 1 1.75-1.91 4.82 4.82 0 0 1 2.59-.68 4.21 4.21 0 0 1 1.87.4 3.78 3.78 0 0 1 1.41 1.13v-5.45zm-4.2 11.44a2.91 2.91 0 0 0 .64-2 2.85 2.85 0 0 0-.64-1.95 2.08 2.08 0 0 0-1.68-.74 2.13 2.13 0 0 0-1.68.74 3.27 3.27 0 0 0 0 3.91 2.11 2.11 0 0 0 1.68.75 2.08 2.08 0 0 0 1.68-.71z" class="cls-1"/><path id="path1776" d="M181.9 46.88a4 4 0 0 1 2-.5v3.26h-.53a3.37 3.37 0 0 0-2.05.59 2.21 2.21 0 0 0-.89 1.62v5.51h-3.57V46.51h3.57v1.8a3.87 3.87 0 0 1 1.47-1.43z" class="cls-1"/><path id="path1778" d="M193.54 47.41a3.57 3.57 0 0 1 1.26 2.88v7h-3.49v-1.18a3.91 3.91 0 0 1-3.31 1.38 3.81 3.81 0 0 1-2.71-.93 3.19 3.19 0 0 1-1-2.45 2.91 2.91 0 0 1 1.07-2.4 4.88 4.88 0 0 1 3.07-.88h2.83v-.12a1.43 1.43 0 0 0-.54-1.2 2.4 2.4 0 0 0-1.53-.42 6.55 6.55 0 0 0-1.53.22A9.7 9.7 0 0 0 186 50l-1-2.39a14.22 14.22 0 0 1 2.53-.89 10.83 10.83 0 0 1 2.5-.29 5.27 5.27 0 0 1 3.51.98zm-3 7.28a1.7 1.7 0 0 0 .76-1v-.94h-2.12c-1 0-1.51.38-1.51 1.13a1.12 1.12 0 0 0 .39.89 1.62 1.62 0 0 0 1.08.33 2.52 2.52 0 0 0 1.41-.41z" class="cls-1"/><path id="path1780" d="M212 48a6.12 6.12 0 0 1 1.42 4.29 5.28 5.28 0 0 1 0 .63h-7.52a2.63 2.63 0 0 0 .89 1.41 2.5 2.5 0 0 0 1.57.5 3.46 3.46 0 0 0 1.34-.28 3.93 3.93 0 0 0 1.2-.83l1.85 1.87a5.49 5.49 0 0 1-2 1.42 7 7 0 0 1-2.69.49 6.43 6.43 0 0 1-3-.68 4.67 4.67 0 0 1-2-1.92 5.79 5.79 0 0 1-.69-2.88A6.07 6.07 0 0 1 203 49a4.8 4.8 0 0 1 2-1.95 6.13 6.13 0 0 1 3-.69 5.22 5.22 0 0 1 4 1.64zm-2 3a2.11 2.11 0 0 0-.55-1.51 2.12 2.12 0 0 0-2.87 0 2.7 2.7 0 0 0-.74 1.53z" class="cls-1"/><path id="path1782" d="M225.24 47.5a4.19 4.19 0 0 1 1.07 3v6.81h-3.55v-5.8a2.06 2.06 0 0 0-.5-1.45 1.76 1.76 0 0 0-1.34-.53 2.07 2.07 0 0 0-1.45.58 2.34 2.34 0 0 0-.66 1.48v5.72h-3.57v-10.8h3.57v1.76a3.84 3.84 0 0 1 1.48-1.41 4.44 4.44 0 0 1 2.09-.48 3.77 3.77 0 0 1 2.86 1.12z" class="cls-1"/><path id="path1784" d="M243.23 46.7a3.84 3.84 0 0 0-1.86-.51 3.66 3.66 0 0 0-1.93.53 3.9 3.9 0 0 0-1.36 1.46 4.23 4.23 0 0 0-.51 2.07 4.18 4.18 0 0 0 .51 2.07 3.71 3.71 0 0 0 1.37 1.46 3.57 3.57 0 0 0 1.92.54 4.25 4.25 0 0 0 1.8-.44 5.91 5.91 0 0 0 1.69-1.2L247 55a8.7 8.7 0 0 1-2.72 1.92 7.51 7.51 0 0 1-3.1.71 7.43 7.43 0 0 1-3.76-1 7.09 7.09 0 0 1-2.64-2.63 7.27 7.27 0 0 1-1-3.72 7 7 0 0 1 3.71-6.28 7.85 7.85 0 0 1 3.82-.93 7.69 7.69 0 0 1 3.09.65 7.61 7.61 0 0 1 2.6 1.8l-2.12 2.56a5.38 5.38 0 0 0-1.65-1.38z" class="cls-1"/><path id="path1786" d="M251.69 42.07a1.85 1.85 0 0 1 .52 1.37 1.8 1.8 0 0 1-1.87 1.89 1.83 1.83 0 0 1-1.34-.53 1.85 1.85 0 0 1-.54-1.36 1.83 1.83 0 0 1 .54-1.37 1.8 1.8 0 0 1 1.35-.54 1.83 1.83 0 0 1 1.34.54zm-3.14 4.44h3.55v10.82h-3.55z" class="cls-1"/><path id="path1788" d="M264.29 47.09a4.62 4.62 0 0 1 1.78 1.91 6.54 6.54 0 0 1 .63 3 6.36 6.36 0 0 1-.62 2.88 4.39 4.39 0 0 1-1.74 1.92 4.89 4.89 0 0 1-2.61.68 4.35 4.35 0 0 1-1.85-.39 3.92 3.92 0 0 1-1.41-1.12v1.39h-3.55V42.49h3.55v5.42a3.8 3.8 0 0 1 3.19-1.51 5 5 0 0 1 2.63.69zm-1.83 6.74a2.82 2.82 0 0 0 .65-1.93 2.9 2.9 0 0 0-.65-2 2.11 2.11 0 0 0-1.68-.75 2.08 2.08 0 0 0-1.66.75 2.9 2.9 0 0 0-.65 2 2.86 2.86 0 0 0 .64 1.93 2.27 2.27 0 0 0 3.35 0z" class="cls-1"/><path id="path1790" d="M277.34 48a6.12 6.12 0 0 1 1.43 4.29v.63h-7.52a2.59 2.59 0 0 0 .9 1.41 2.45 2.45 0 0 0 1.56.5 3.47 3.47 0 0 0 1.29-.33 4 4 0 0 0 1.19-.83l1.85 1.87a5.49 5.49 0 0 1-2 1.42 6.92 6.92 0 0 1-2.68.49 6.44 6.44 0 0 1-3.05-.68 4.67 4.67 0 0 1-2-1.92 5.79 5.79 0 0 1-.69-2.88 6 6 0 0 1 .71-2.93 4.77 4.77 0 0 1 2-1.95 6.13 6.13 0 0 1 3-.69 5.22 5.22 0 0 1 4.01 1.6zm-2 3a2.06 2.06 0 0 0-.55-1.51 2.11 2.11 0 0 0-2.86 0 2.71 2.71 0 0 0-.75 1.53z" class="cls-1"/><path id="path1792" d="M285.58 46.88a4 4 0 0 1 2-.5v3.26h-.53a3.31 3.31 0 0 0-2 .59 2.19 2.19 0 0 0-.9 1.62v5.51h-3.57V46.51h3.57v1.8a3.87 3.87 0 0 1 1.43-1.43z" class="cls-1"/><path id="path1794" d="M293 48.84a1.43 1.43 0 0 0-.74.16.54.54 0 0 0-.28.51.66.66 0 0 0 .44.58 8.17 8.17 0 0 0 1.4.49 16.86 16.86 0 0 1 1.93.67 3.47 3.47 0 0 1 1.33 1 2.66 2.66 0 0 1 .55 1.75 3 3 0 0 1-1.27 2.57 5.45 5.45 0 0 1-3.31.93 8.86 8.86 0 0 1-2.63-.39 6.68 6.68 0 0 1-2.29-1.11l1.11-2.31a7.73 7.73 0 0 0 1.94 1 5.66 5.66 0 0 0 1.91.35 1.65 1.65 0 0 0 .83-.17.52.52 0 0 0 .3-.48.66.66 0 0 0-.44-.62 8.69 8.69 0 0 0-1.41-.49 14.53 14.53 0 0 1-1.88-.67 3.47 3.47 0 0 1-1.29-1 2.6 2.6 0 0 1-.55-1.73 3 3 0 0 1 1.24-2.56 5.19 5.19 0 0 1 3.2-.93 8.35 8.35 0 0 1 2.33.32 8 8 0 0 1 2.16.94l-1.19 2.31a7.94 7.94 0 0 0-3.39-1.12Z" class="cls-1"/><path id="path1796" d="M308.32 48a6.12 6.12 0 0 1 1.42 4.29 5.28 5.28 0 0 1 0 .63h-7.54a2.7 2.7 0 0 0 .9 1.41 2.47 2.47 0 0 0 1.56.5 3.47 3.47 0 0 0 1.34-.33 3.77 3.77 0 0 0 1.19-.83l1.86 1.87A5.49 5.49 0 0 1 307 57a7 7 0 0 1-2.69.49 6.4 6.4 0 0 1-3-.68 4.67 4.67 0 0 1-2-1.92 5.79 5.79 0 0 1-.69-2.88 6 6 0 0 1 .7-2.93 4.83 4.83 0 0 1 2-1.95 6.16 6.16 0 0 1 3-.69 5.25 5.25 0 0 1 4 1.56zm-2 3a2.07 2.07 0 0 0-.56-1.51 1.91 1.91 0 0 0-1.45-.57 1.94 1.94 0 0 0-1.41.55 2.7 2.7 0 0 0-.74 1.53z" class="cls-1"/><path id="path1798" d="M321.91 46.51v9.87a4.71 4.71 0 0 1-.74 2.63 4.8 4.8 0 0 1-2.07 1.74 7.41 7.41 0 0 1-3.07.61 9.17 9.17 0 0 1-2.62-.38 8.41 8.41 0 0 1-2.22-1l1.24-2.46a6.59 6.59 0 0 0 1.6.78 5.47 5.47 0 0 0 1.74.29 2.93 2.93 0 0 0 1.9-.57 1.83 1.83 0 0 0 .71-1.51v-1.2a3.7 3.7 0 0 1-3.09 1.43 4.37 4.37 0 0 1-4-2.5 6.09 6.09 0 0 1-.59-2.73 6 6 0 0 1 .57-2.68 4.25 4.25 0 0 1 1.58-1.83 4.4 4.4 0 0 1 2.36-.64 4.25 4.25 0 0 1 1.81.37 3.72 3.72 0 0 1 1.36 1.06v-1.28zm-4.14 6.92a2.69 2.69 0 0 0 .61-1.82 2.74 2.74 0 0 0-.61-1.84 2.12 2.12 0 0 0-3.17 0 2.67 2.67 0 0 0-.61 1.82 2.64 2.64 0 0 0 .61 1.82 2 2 0 0 0 1.59.7 2 2 0 0 0 1.58-.68z" class="cls-1"/><path id="path1800" d="M335.07 46.51v10.82h-3.56v-1.75a3.8 3.8 0 0 1-3.46 1.91 3.67 3.67 0 0 1-2.81-1.13 4.23 4.23 0 0 1-1.05-3v-6.85h3.56v5.82a2.06 2.06 0 0 0 .47 1.44 1.61 1.61 0 0 0 1.27.53 1.88 1.88 0 0 0 1.48-.7 2.7 2.7 0 0 0 .54-1.74v-5.35z" class="cls-1"/><path id="path1802" d="M342.79 46.88a4 4 0 0 1 2-.5v3.26h-.54a3.31 3.31 0 0 0-2 .59 2.26 2.26 0 0 0-.9 1.62v5.51h-3.56V46.51h3.56v1.8a3.9 3.9 0 0 1 1.44-1.43z" class="cls-1"/><path id="path1804" d="M349.51 42.07a1.86 1.86 0 0 1 .53 1.37 1.89 1.89 0 0 1-.53 1.36 1.92 1.92 0 0 1-2.7-2.73 2 2 0 0 1 2.7 0zm-3.14 4.44h3.55v10.82h-3.55z" class="cls-1"/><path id="path1806" d="M363.55 42.49v14.84H360v-1.39a3.6 3.6 0 0 1-1.37 1.15 4.32 4.32 0 0 1-1.84.38 4.91 4.91 0 0 1-2.64-.7 4.68 4.68 0 0 1-1.77-2 6.54 6.54 0 0 1-.63-2.93 6.44 6.44 0 0 1 .62-2.89 4.63 4.63 0 0 1 1.75-1.91 4.84 4.84 0 0 1 2.59-.68 4.18 4.18 0 0 1 1.87.4 3.89 3.89 0 0 1 1.42 1.17v-5.44zm-4.19 11.44a3 3 0 0 0 .64-2 2.9 2.9 0 0 0-.64-1.95 2.11 2.11 0 0 0-1.69-.74A2.13 2.13 0 0 0 356 50a3.27 3.27 0 0 0 0 3.91 2.27 2.27 0 0 0 3.37 0z" class="cls-1"/><path id="path1808" d="M374.72 47.41a3.57 3.57 0 0 1 1.28 2.88v7h-3.49v-1.18a3.91 3.91 0 0 1-3.27 1.38 3.83 3.83 0 0 1-2.71-.93 3.19 3.19 0 0 1-1-2.45 2.91 2.91 0 0 1 1.07-2.4 4.9 4.9 0 0 1 3.07-.88h2.83v-.12a1.43 1.43 0 0 0-.54-1.2 2.39 2.39 0 0 0-1.52-.42 6.55 6.55 0 0 0-1.54.22 9.7 9.7 0 0 0-1.71.64l-1-2.39a14.5 14.5 0 0 1 2.53-.89 10.85 10.85 0 0 1 2.51-.29 5.24 5.24 0 0 1 3.49 1.03zm-3 7.28a1.7 1.7 0 0 0 .76-1v-.94h-2.12c-1 0-1.51.38-1.51 1.13a1.12 1.12 0 0 0 .39.89 1.62 1.62 0 0 0 1.08.33 2.52 2.52 0 0 0 1.41-.41z" class="cls-1"/><path id="path1810" d="M389.29 42.49v14.84h-3.55v-1.39a3.6 3.6 0 0 1-1.37 1.15 4.31 4.31 0 0 1-1.83.38 4.92 4.92 0 0 1-2.65-.7 4.66 4.66 0 0 1-1.76-2 6.54 6.54 0 0 1-.63-2.93 6.31 6.31 0 0 1 .62-2.89 4.54 4.54 0 0 1 1.74-1.91 4.85 4.85 0 0 1 2.6-.68 4.24 4.24 0 0 1 1.87.4 4 4 0 0 1 1.41 1.13v-5.4zm-4.19 11.44a2.91 2.91 0 0 0 .64-2 2.85 2.85 0 0 0-.64-1.93 2.11 2.11 0 0 0-1.69-.74 2.13 2.13 0 0 0-1.68.74 3.27 3.27 0 0 0 0 3.91 2.27 2.27 0 0 0 3.37 0z" class="cls-1"/><path id="path1812" d="M407.52 43.74a4.1 4.1 0 0 1 1.81 1.26 3.12 3.12 0 0 1 0 3.8 3.28 3.28 0 0 1-1.78 1.12 3.49 3.49 0 0 1 2.11 1.22 3.58 3.58 0 0 1 .78 2.33 3.37 3.37 0 0 1-.66 2.07 4.19 4.19 0 0 1-1.88 1.36 8.06 8.06 0 0 1-2.86.46h-6.94v-14h6.66a8 8 0 0 1 2.76.38zm-1.75 4.79a1.31 1.31 0 0 0 .44-1 1.19 1.19 0 0 0-.44-1 1.86 1.86 0 0 0-1.2-.33h-2.81v2.7h2.81a1.87 1.87 0 0 0 1.2-.37zm.31 5.56a1.28 1.28 0 0 0 .57-1.11 1.24 1.24 0 0 0-.57-1.06 2.53 2.53 0 0 0-1.51-.37h-2.81v2.94h2.81a2.53 2.53 0 0 0 1.51-.4z" class="cls-1"/><path id="path1814" d="M415.55 42.07a1.86 1.86 0 0 1 .53 1.37 1.89 1.89 0 0 1-.53 1.36 1.82 1.82 0 0 1-1.34.53 1.93 1.93 0 0 1-1.36-3.26 1.84 1.84 0 0 1 1.36-.54 1.79 1.79 0 0 1 1.34.54zm-3.13 4.44H416v10.82h-3.54z" class="cls-1"/><path id="path1816" d="M428.67 47.5a4.15 4.15 0 0 1 1.07 3v6.81h-3.54v-5.8a2.06 2.06 0 0 0-.5-1.45 1.76 1.76 0 0 0-1.34-.53 2.07 2.07 0 0 0-1.45.58 2.4 2.4 0 0 0-.67 1.48v5.72h-3.56v-10.8h3.56v1.76a3.87 3.87 0 0 1 1.49-1.41 4.44 4.44 0 0 1 2.09-.48 3.74 3.74 0 0 1 2.85 1.12z" class="cls-1"/><path id="path1818" d="M439.2 56.78a5.36 5.36 0 0 1-1.38.53 7 7 0 0 1-1.58.18 3.64 3.64 0 0 1-2.6-.92 3.29 3.29 0 0 1-1-2.54V49.4h-1.49V47h1.49v-3h3.55v3H439v2.4h-2.8v4.08c0 .76.31 1.14.93 1.13a3.67 3.67 0 0 0 1.39-.35z" class="cls-1"/><path id="path1820" d="M449.65 48a6.12 6.12 0 0 1 1.42 4.29v.63h-7.52a2.7 2.7 0 0 0 .9 1.41 2.45 2.45 0 0 0 1.56.5 3.47 3.47 0 0 0 1.35-.28 3.77 3.77 0 0 0 1.19-.83l1.86 1.87a5.49 5.49 0 0 1-2 1.42 7 7 0 0 1-2.69.49 6.4 6.4 0 0 1-3-.68 4.62 4.62 0 0 1-2-1.92A5.79 5.79 0 0 1 440 52a6 6 0 0 1 .7-2.93 4.83 4.83 0 0 1 2-1.95 6.16 6.16 0 0 1 3-.69 5.25 5.25 0 0 1 3.95 1.57zm-2 3a2.06 2.06 0 0 0-.55-1.51 2.11 2.11 0 0 0-2.86 0 2.77 2.77 0 0 0-.75 1.53z" class="cls-1"/><path id="path1822" d="M457.89 46.88a4 4 0 0 1 2-.5v3.26h-.54a3.31 3.31 0 0 0-2 .59 2.26 2.26 0 0 0-.9 1.62v5.51h-3.56V46.51h3.56v1.8a3.83 3.83 0 0 1 1.44-1.43z" class="cls-1"/></g></g></svg>