<svg xmlns="http://www.w3.org/2000/svg" id="svg5" width="415.092" height="77.3" version="1.1" viewBox="0 0 109.826 20.452"><defs id="defs2"><style id="style991">.st0{fill:#57068c}</style></defs><g id="layer1" transform="translate(-42.847 -122.74)"><g id="g2209" transform="matrix(.26458 0 0 .26458 31.02 112.184)"><g id="Capa_1"><g id="g2133"><path id="path2015" d="M116.3 44.7h10.8v2.7h-7.6v3.1h6.9v2.7h-6.9v3.2h7.9V59h-11.1z" class="st0"/><path id="path2017" d="M135 50.5c-.6-.2-1.1-.3-1.6-.3-.4 0-.7.1-.9.2-.2.1-.3.3-.3.6s.2.5.5.7c.3.2.8.3 1.5.6.8.2 1.4.5 1.9.7.5.2.9.6 1.3 1s.6 1 .6 1.7c0 1.1-.4 1.9-1.3 2.5-.8.6-1.9.9-3.2.9-.9 0-1.8-.1-2.6-.4-.8-.3-1.5-.6-2.2-1.1l1-2.1c.6.4 1.2.8 1.9 1 .7.2 1.3.4 1.9.4.4 0 .8-.1 1-.2.3-.1.4-.4.4-.6 0-.3-.2-.6-.5-.7-.3-.2-.8-.4-1.5-.6-.7-.2-1.4-.4-1.9-.7-.5-.2-.9-.5-1.3-1-.4-.4-.5-1-.5-1.7 0-1.1.4-1.9 1.2-2.5.8-.6 1.8-.9 3.1-.9.7 0 1.5.1 2.2.3.7.2 1.4.5 2 .9l-1.1 2.1c-.4-.4-1-.6-1.6-.8z" class="st0"/><path id="path2019" d="M145 50.6c-.8 0-1.4.3-1.9.8s-.7 1.2-.7 2.1c0 .9.2 1.6.7 2.1.5.6 1.1.8 1.9.8 1.1 0 2-.4 2.5-1.3l2.2 1.5c-.5.8-1.1 1.4-1.9 1.8-.8.4-1.8.6-2.9.6-1.1 0-2.1-.2-2.9-.7-.8-.5-1.5-1.1-2-2-.5-.8-.7-1.8-.7-2.9 0-1.1.2-2.1.7-2.9.5-.8 1.1-1.5 2-2 .8-.5 1.8-.7 2.9-.7 1 0 2 .2 2.8.6.8.4 1.5 1 2 1.7l-2.1 1.5c-.8-.6-1.6-1-2.6-1z" class="st0"/><path id="path2021" d="M162.1 48v11H159v-1.9c-.7 1.4-2 2.1-3.7 2.1-1.2 0-2.2-.4-2.9-1.1-.7-.8-1.1-1.8-1.1-3.1v-7h3.1v6c0 .7.2 1.2.6 1.6.4.4.9.6 1.5.6.7 0 1.3-.3 1.8-.8.4-.5.7-1.2.7-2V48Z" class="st0"/><path id="path2023" d="M174 49.5c.9 1 1.4 2.4 1.4 4.3v.7h-7.8c.2.7.5 1.2 1 1.6.5.4 1.1.6 1.8.6.5 0 1-.1 1.5-.3.5-.2.9-.5 1.3-.9l1.6 1.7c-.6.6-1.2 1.1-2 1.4-.8.3-1.7.5-2.7.5-1.2 0-2.2-.2-3-.7-.9-.5-1.5-1.1-2-2-.5-.8-.7-1.8-.7-2.9 0-1.1.2-2.1.7-2.9.5-.8 1.1-1.5 2-2 .9-.5 1.8-.7 2.9-.7 1.7 0 3 .6 4 1.6zm-1.6 3.1c0-.7-.3-1.3-.7-1.7-.4-.4-1-.7-1.7-.7s-1.2.2-1.7.6c-.5.4-.7 1-.9 1.7h5z" class="st0"/><path id="path2025" d="M177.6 43.9h3.1V59h-3.1z" class="st0"/><path id="path2027" d="M190.3 59v-1.3c-.4.5-.8.8-1.4 1.1-.6.2-1.3.4-2 .4-1.2 0-2.1-.3-2.7-.9-.7-.6-1-1.5-1-2.5s.4-1.8 1.1-2.4c.7-.6 1.8-.9 3.1-.9h3v-.2c0-.6-.2-1-.6-1.4-.4-.3-1-.5-1.7-.5-1 0-2.1.3-3.3 1l-1-2.2c.9-.4 1.7-.8 2.4-1 .7-.2 1.6-.3 2.5-.3 1.5 0 2.6.3 3.4 1 .8.7 1.2 1.7 1.2 2.9v7.1h-3zm-.9-2.6c.5-.3.8-.7.8-1.2v-1h-2.5c-.6 0-1.1.1-1.4.3-.3.2-.4.5-.4.9s.2.8.5 1c.3.3.7.4 1.2.4.8.1 1.4-.1 1.8-.4z" class="st0"/><path id="path2029" d="M209.5 47.7c-.8-.3-1.5-.4-2.1-.4-.6 0-1 .1-1.3.3-.3.2-.5.5-.5.9 0 .5.2.9.7 1.2.5.3 1.2.5 2.2.8 1 .3 1.8.6 2.4.9.6.3 1.2.7 1.6 1.3.4.6.7 1.3.7 2.3 0 .9-.2 1.7-.7 2.4-.5.7-1.1 1.2-2 1.5-.8.3-1.8.5-2.9.5-1.2 0-2.3-.2-3.4-.6-1.1-.4-2.1-1-2.9-1.7l1.3-2.6c.7.6 1.5 1.2 2.5 1.6.9.4 1.8.6 2.6.6.7 0 1.2-.1 1.6-.4.4-.3.6-.6.6-1.1 0-.4-.1-.7-.4-.9-.3-.2-.6-.4-1-.6-.4-.1-.9-.3-1.6-.5-1-.3-1.8-.5-2.4-.8-.6-.3-1.2-.7-1.6-1.2-.4-.6-.7-1.3-.7-2.2 0-.9.2-1.6.7-2.3.5-.6 1.1-1.1 1.9-1.5.8-.3 1.8-.5 2.9-.5 1 0 1.9.1 2.9.4 1 .3 1.8.7 2.5 1.1l-1.2 2.7c-.8-.6-1.6-1-2.4-1.2z" class="st0"/><path id="path2031" d="M225.8 48v11h-3.1v-1.9c-.7 1.4-2 2.1-3.7 2.1-1.2 0-2.2-.4-2.9-1.1-.7-.8-1.1-1.8-1.1-3.1v-7h3.1v6c0 .7.2 1.2.6 1.6.4.4.9.6 1.5.6.7 0 1.3-.3 1.8-.8.4-.5.7-1.2.7-2V48Z" class="st0"/><path id="path2033" d="M238.4 48.6c.8.5 1.4 1.1 1.8 2 .4.9.6 1.8.6 3 0 1.1-.2 2.1-.6 2.9-.4.8-1 1.5-1.8 1.9-.8.5-1.7.7-2.7.7-.8 0-1.4-.1-2-.4-.6-.3-1.1-.7-1.5-1.3v5.5h-3.1V48h3.1v1.6c.4-.6.9-1 1.5-1.3.6-.3 1.3-.4 2-.4 1 0 1.9.3 2.7.7zm-1.5 7.1c.5-.6.8-1.3.8-2.2 0-.9-.3-1.6-.8-2.2-.5-.6-1.2-.8-1.9-.8-.8 0-1.5.3-2 .8-.5.6-.8 1.3-.8 2.2 0 .9.3 1.6.8 2.2.5.6 1.2.8 2 .8.7 0 1.4-.3 1.9-.8z" class="st0"/><path id="path2035" d="M251.7 49.5c.9 1 1.4 2.4 1.4 4.3v.7h-7.8c.2.7.5 1.2 1 1.6.5.4 1.1.6 1.8.6.5 0 1-.1 1.5-.3.5-.2.9-.5 1.3-.9l1.6 1.7c-.6.6-1.2 1.1-2 1.4-.8.3-1.7.5-2.7.5-1.2 0-2.2-.2-3-.7-.9-.5-1.5-1.1-2-2-.5-.8-.7-1.8-.7-2.9 0-1.1.2-2.1.7-2.9.5-.8 1.1-1.5 2-2 .9-.5 1.8-.7 2.9-.7 1.7 0 3.1.6 4 1.6zm-1.6 3.1c0-.7-.3-1.3-.7-1.7-.4-.4-1-.7-1.7-.7s-1.2.2-1.7.6c-.5.4-.7 1-.9 1.7h5z" class="st0"/><path id="path2037" d="M259.8 48.5c.6-.4 1.3-.5 2.1-.5v3h-.5c-1 0-1.7.3-2.3.8-.6.5-.8 1.2-.8 2.1V59h-3.1V48h3.1v2c.4-.7.9-1.2 1.5-1.5z" class="st0"/><path id="path2039" d="M266.6 43.7c.3.3.5.7.5 1.3 0 .6-.2.9-.5 1.3-.3.3-.7.5-1.2.5s-.9-.2-1.2-.5c-.3-.3-.5-.7-.5-1.3 0-.5.2-.9.5-1.3.3-.3.7-.5 1.2-.5.4 0 .9.2 1.2.5zm-2.8 4.3h3.1v11h-3.1z" class="st0"/><path id="path2041" d="M278 48.6c.9.5 1.6 1.1 2.1 2 .5.9.7 1.8.7 2.9 0 1.1-.2 2.1-.7 2.9-.5.8-1.2 1.5-2.1 2-.9.5-1.9.7-3.1.7-1.2 0-2.2-.2-3.1-.7-.9-.5-1.6-1.1-2.1-2-.5-.8-.7-1.8-.7-2.9 0-1.1.2-2.1.7-2.9.5-.8 1.2-1.5 2.1-2 .9-.5 1.9-.7 3.1-.7 1.2 0 2.2.3 3.1.7zm-5 2.8c-.5.6-.8 1.3-.8 2.2 0 .9.3 1.6.8 2.2.5.6 1.2.8 2 .8s1.5-.3 2-.8c.5-.6.8-1.3.8-2.2 0-.9-.3-1.6-.8-2.2-.5-.6-1.2-.8-2-.8s-1.5.2-2 .8z" class="st0"/><path id="path2043" d="M287.6 48.5c.6-.4 1.3-.5 2.1-.5v3h-.5c-1 0-1.7.3-2.3.8-.6.5-.8 1.2-.8 2.1V59H283V48h3.1v2c.4-.7.9-1.2 1.5-1.5z" class="st0"/><path id="path2045" d="M127 69.7v15.1h-3.1v-1.6c-.4.6-.9 1-1.5 1.3-.6.3-1.2.4-2 .4-1 0-1.9-.2-2.7-.7-.8-.5-1.4-1.1-1.8-2-.4-.9-.6-1.8-.6-3 0-1.1.2-2.1.6-2.9.4-.8 1-1.5 1.8-2s1.7-.7 2.7-.7c1.5 0 2.7.6 3.5 1.7v-5.8h3.1zm-3.9 11.8c.5-.6.8-1.3.8-2.2 0-.9-.3-1.6-.8-2.2-.5-.6-1.2-.8-2-.8s-1.5.3-2 .8c-.5.6-.8 1.3-.8 2.2 0 .9.3 1.6.8 2.2.5.6 1.2.8 2 .8.9.1 1.5-.2 2-.8z" class="st0"/><path id="path2047" d="M139 75.3c.9 1 1.4 2.4 1.4 4.3v.7h-7.8c.2.7.5 1.2 1 1.6.5.4 1.1.6 1.8.6.5 0 1-.1 1.5-.3.5-.2.9-.5 1.3-.9l1.6 1.7c-.6.6-1.2 1.1-2 1.4-.8.3-1.7.5-2.7.5-1.2 0-2.2-.2-3-.7-.9-.5-1.5-1.1-2-2-.5-.8-.7-1.8-.7-2.9 0-1.1.2-2.1.7-2.9.5-.8 1.1-1.5 2-2 .9-.5 1.8-.7 2.9-.7 1.7 0 3 .6 4 1.6zm-1.6 3.1c0-.7-.3-1.3-.7-1.7-.4-.4-1-.7-1.7-.7s-1.2.2-1.7.6c-.5.4-.7 1-.9 1.7h5z" class="st0"/><path id="path2049" d="M148.8 70.5h3.2v14.2h-3.2z" class="st0"/><path id="path2051" d="M165 74.9c.7.8 1.1 1.8 1.1 3.1v6.9H163v-6c0-.7-.2-1.2-.6-1.6-.4-.4-.9-.6-1.6-.6-.8 0-1.4.3-1.8.8-.4.5-.7 1.2-.7 2v5.4h-3.1v-11h3.1v1.9c.8-1.3 2-2 3.8-2 1.2-.1 2.2.3 2.9 1.1z" class="st0"/><path id="path2053" d="M179.2 73.8v9.9c0 1-.2 1.9-.7 2.7-.5.8-1.2 1.4-2.1 1.8-.9.4-1.9.6-3.1.6-.9 0-1.7-.1-2.6-.4-.8-.3-1.5-.6-2.2-1.1l1.2-2.2c1 .7 2.2 1.1 3.4 1.1.9 0 1.6-.2 2.1-.7.5-.4.8-1 .8-1.8v-1.2c-.4.5-.8.9-1.4 1.2-.6.3-1.2.4-1.9.4-.9 0-1.8-.2-2.5-.7-.7-.4-1.3-1.1-1.7-1.9-.4-.8-.6-1.7-.6-2.8 0-1 .2-1.9.6-2.7.4-.8 1-1.4 1.7-1.8.7-.4 1.6-.7 2.5-.7.7 0 1.3.1 1.9.4.6.3 1 .7 1.4 1.2v-1.5h3.2zm-3.9 7.3c.5-.5.7-1.2.7-2s-.2-1.5-.7-2.1c-.5-.5-1.1-.8-1.9-.8-.8 0-1.4.3-1.9.8s-.7 1.2-.7 2.1c0 .8.3 1.5.7 2 .5.5 1.1.8 1.9.8.8-.1 1.5-.3 1.9-.8z" class="st0"/><path id="path2055" d="M190.8 75.3c.9 1 1.4 2.4 1.4 4.3v.7h-7.8c.2.7.5 1.2 1 1.6.5.4 1.1.6 1.8.6.5 0 1-.1 1.5-.3.5-.2.9-.5 1.3-.9l1.6 1.7c-.6.6-1.2 1.1-2 1.4-.8.3-1.7.5-2.7.5-1.2 0-2.2-.2-3-.7-.9-.5-1.5-1.1-2-2-.5-.8-.7-1.8-.7-2.9 0-1.1.2-2.1.7-2.9.5-.8 1.1-1.5 2-2 .9-.5 1.8-.7 2.9-.7 1.8 0 3.1.6 4 1.6zm-1.5 3.1c0-.7-.3-1.3-.7-1.7-.4-.4-1-.7-1.7-.7s-1.2.2-1.7.6c-.5.4-.7 1-.9 1.7h5z" class="st0"/><path id="path2057" d="M204.2 74.9c.7.8 1.1 1.8 1.1 3.1v6.9h-3.1v-6c0-.7-.2-1.2-.6-1.6-.4-.4-.9-.6-1.6-.6-.8 0-1.4.3-1.8.8-.4.5-.7 1.2-.7 2v5.4h-3.1v-11h3.1v1.9c.8-1.3 2-2 3.8-2 1.2-.1 2.2.3 2.9 1.1z" class="st0"/><path id="path2059" d="M210.9 69.5c.3.3.5.7.5 1.3 0 .6-.2.9-.5 1.3-.3.3-.7.5-1.2.5s-.9-.2-1.2-.5c-.3-.3-.5-.7-.5-1.3 0-.5.2-.9.5-1.3.3-.3.7-.5 1.2-.5s.9.2 1.2.5zm-2.8 4.3h3.1v11h-3.1z" class="st0"/><path id="path2061" d="M223.1 75.3c.9 1 1.4 2.4 1.4 4.3v.7h-7.8c.2.7.5 1.2 1 1.6.5.4 1.1.6 1.8.6.5 0 1-.1 1.5-.3.5-.2.9-.5 1.3-.9l1.6 1.7c-.6.6-1.2 1.1-2 1.4-.8.3-1.7.5-2.7.5-1.2 0-2.2-.2-3-.7-.9-.5-1.5-1.1-2-2-.5-.8-.7-1.8-.7-2.9 0-1.1.2-2.1.7-2.9.5-.8 1.1-1.5 2-2 .9-.5 1.8-.7 2.9-.7 1.7 0 3 .6 4 1.6zm-1.6 3.1c0-.7-.3-1.3-.7-1.7-.4-.4-1-.7-1.7-.7s-1.2.2-1.7.6c-.5.4-.7 1-.9 1.7h5z" class="st0"/><path id="path2063" d="M231.2 74.3c.6-.4 1.3-.5 2.1-.5v3h-.5c-1 0-1.7.3-2.3.8-.6.5-.8 1.2-.8 2.1V85h-3.1V74h3.1v2c.4-.9.9-1.4 1.5-1.7z" class="st0"/><path id="path2065" d="m237.4 69.2 2.8 1.1-2.8 2.2-2.3-.2zm-2.3 4.6h3.1v11h-3.1z" class="st0"/><path id="path2067" d="M247.7 84.8v-1.3c-.4.5-.8.8-1.4 1.1-.6.2-1.3.4-2 .4-1.2 0-2.1-.3-2.7-.9-.7-.6-1-1.5-1-2.5s.4-1.8 1.1-2.4c.7-.6 1.8-.9 3.1-.9h3V78c0-.6-.2-1-.6-1.4-.4-.3-1-.5-1.7-.5-1 0-2.1.3-3.3 1l-1-2.2c.9-.4 1.7-.8 2.4-1 .7-.2 1.6-.3 2.5-.3 1.5 0 2.6.3 3.4 1 .8.7 1.2 1.7 1.2 2.9v7.1h-3zm-.8-2.6c.5-.3.8-.7.8-1.2v-1h-2.5c-.6 0-1.1.1-1.4.3-.3.2-.4.5-.4.9s.2.8.5 1c.3.3.7.4 1.2.4.7.1 1.3-.1 1.8-.4z" class="st0"/><path id="path2069" d="M261.1 88.9c-.6 0-1.1-.1-1.6-.3-.5-.2-.9-.4-1.4-.8l1.3-2.3c.5.4 1 .6 1.4.6.7 0 1.1-.3 1.5-1l.3-.6-4.5-10.7h3.2l2.9 7.5 2.6-7.5h3.1L265.1 86c-.7 1.9-2.1 2.9-4 2.9z" class="st0"/><path id="path2071" d="M276.2 70.5h11.9v2.7h-4.4v11.5h-3.2V73.3h-4.3z" class="st0"/><path id="path2073" d="M297.3 75.3c.9 1 1.4 2.4 1.4 4.3v.7h-7.8c.2.7.5 1.2 1 1.6.5.4 1.1.6 1.8.6.5 0 1-.1 1.5-.3.5-.2.9-.5 1.3-.9L298 83c-.6.6-1.2 1.1-2 1.4-.8.3-1.7.5-2.7.5-1.2 0-2.2-.2-3-.7-.9-.5-1.5-1.1-2-2-.5-.8-.7-1.8-.7-2.9 0-1.1.2-2.1.7-2.9.5-.8 1.1-1.5 2-2 .9-.5 1.8-.7 2.9-.7 1.8 0 3.2.6 4.1 1.6zm-1.6 3.1c0-.7-.3-1.3-.7-1.7-.4-.4-1-.7-1.7-.7s-1.2.2-1.7.6c-.5.4-.7 1-.9 1.7h5z" class="st0"/><path id="path2075" d="M305.7 76.4c-.8 0-1.4.3-1.9.8s-.7 1.2-.7 2.1c0 .9.2 1.6.7 2.1.5.5 1.1.8 1.9.8 1.1 0 2-.4 2.5-1.3l2.2 1.5c-.5.8-1.1 1.4-1.9 1.8-.8.4-1.8.6-2.9.6-1.1 0-2.1-.2-2.9-.7-.8-.5-1.5-1.1-2-2-.5-.8-.7-1.8-.7-2.9 0-1.1.2-2.1.7-2.9.5-.8 1.1-1.5 2-2 .8-.5 1.8-.7 2.9-.7 1 0 2 .2 2.8.6.8.4 1.5 1 2 1.7l-2.1 1.5c-.8-.6-1.6-1-2.6-1z" class="st0"/><path id="path2077" d="M322.2 74.9c.7.8 1.1 1.8 1.1 3.1v6.9h-3.1v-6c0-.7-.2-1.2-.6-1.6-.4-.4-.9-.6-1.6-.6-.8 0-1.4.3-1.8.8-.4.5-.7 1.2-.7 2v5.4h-3.1v-11h3.1v1.9c.8-1.3 2-2 3.8-2 1.2-.1 2.2.3 2.9 1.1z" class="st0"/><path id="path2079" d="M334.1 74.4c.9.5 1.6 1.1 2.1 2 .5.9.7 1.8.7 2.9 0 1.1-.2 2.1-.7 2.9-.5.8-1.2 1.5-2.1 2-.9.5-1.9.7-3.1.7-1.2 0-2.2-.2-3.1-.7-.9-.5-1.6-1.1-2.1-2-.5-.8-.7-1.8-.7-2.9 0-1.1.2-2.1.7-2.9.5-.8 1.2-1.5 2.1-2 .9-.5 1.9-.7 3.1-.7 1.2 0 2.2.3 3.1.7zm-5 2.8c-.5.6-.8 1.3-.8 2.2 0 .9.3 1.6.8 2.2.5.6 1.2.8 2 .8s1.5-.3 2-.8.8-1.3.8-2.2c0-.9-.3-1.6-.8-2.2-.5-.6-1.2-.8-2-.8-.9 0-1.5.2-2 .8z" class="st0"/><path id="path2081" d="M339.2 69.7h3.1v15.1h-3.1z" class="st0"/><path id="path2083" d="M353.6 74.4c.9.5 1.6 1.1 2.1 2 .5.9.7 1.8.7 2.9 0 1.1-.2 2.1-.7 2.9-.5.8-1.2 1.5-2.1 2-.9.5-1.9.7-3.1.7-1.2 0-2.2-.2-3.1-.7-.9-.5-1.6-1.1-2.1-2-.5-.8-.7-1.8-.7-2.9 0-1.1.2-2.1.7-2.9.5-.8 1.2-1.5 2.1-2 .9-.5 1.9-.7 3.1-.7 1.2 0 2.2.3 3.1.7zm-5.1 2.8c-.5.6-.8 1.3-.8 2.2 0 .9.3 1.6.8 2.2.5.6 1.2.8 2 .8s1.5-.3 2-.8.8-1.3.8-2.2c0-.9-.3-1.6-.8-2.2-.5-.6-1.2-.8-2-.8s-1.5.2-2 .8z" class="st0"/><path id="path2085" d="M368.8 73.8v9.9c0 1-.2 1.9-.7 2.7-.5.8-1.2 1.4-2.1 1.8-.9.4-1.9.6-3.1.6-.9 0-1.7-.1-2.6-.4-.8-.3-1.5-.6-2.2-1.1l1.2-2.2c1 .7 2.2 1.1 3.4 1.1.9 0 1.6-.2 2.1-.7.5-.4.8-1 .8-1.8v-1.2c-.4.5-.8.9-1.4 1.2-.6.3-1.2.4-1.9.4-.9 0-1.8-.2-2.5-.7-.7-.4-1.3-1.1-1.7-1.9-.4-.8-.6-1.7-.6-2.8 0-1 .2-1.9.6-2.7.4-.8 1-1.4 1.7-1.8.7-.4 1.6-.7 2.5-.7.7 0 1.3.1 1.9.4.6.3 1 .7 1.4 1.2v-1.5h3.2zm-3.8 7.3c.5-.5.7-1.2.7-2s-.2-1.5-.7-2.1c-.5-.5-1.1-.8-1.9-.8-.8 0-1.4.3-1.9.8s-.7 1.2-.7 2.1c0 .8.3 1.5.7 2 .5.5 1.1.8 1.9.8.8-.1 1.4-.3 1.9-.8z" class="st0"/><path id="path2087" d="m374 69.2 2.8 1.1-2.8 2.2-2.3-.2zm-2.2 4.6h3.1v11h-3.1z" class="st0"/><path id="path2089" d="M384.4 84.8v-1.3c-.4.5-.8.8-1.4 1.1-.6.2-1.3.4-2 .4-1.2 0-2.1-.3-2.7-.9-.7-.6-1-1.5-1-2.5s.4-1.8 1.1-2.4c.7-.6 1.8-.9 3.1-.9h3V78c0-.6-.2-1-.6-1.4-.4-.3-1-.5-1.7-.5-1 0-2.1.3-3.3 1l-1-2.2c.9-.4 1.7-.8 2.4-1 .7-.2 1.6-.3 2.5-.3 1.5 0 2.6.3 3.4 1 .8.7 1.2 1.7 1.2 2.9v7.1h-3zm-.9-2.6c.5-.3.8-.7.8-1.2v-1h-2.5c-.6 0-1.1.1-1.4.3-.3.2-.4.5-.4.9s.2.8.5 1c.3.3.7.4 1.2.4.7.1 1.3-.1 1.8-.4z" class="st0"/><path id="path2091" d="M119.3 110.7c.8.8 1.8 1.2 3.2 1.2 1.3 0 2.4-.4 3.2-1.2.8-.8 1.2-1.9 1.2-3.3V99h1.6v8.4c0 1.8-.5 3.3-1.6 4.3s-2.5 1.6-4.4 1.6c-1.9 0-3.3-.5-4.4-1.6-1.1-1.1-1.6-2.5-1.6-4.3V99h1.6v8.4c.1 1.4.5 2.5 1.2 3.3z" class="st0"/><path id="path2093" d="M141 103.5c.7.7 1.1 1.8 1.1 3.1v6.6h-1.6V107c0-.9-.3-1.7-.8-2.2-.5-.5-1.3-.8-2.2-.8-1 0-1.9.3-2.5 1-.6.6-1 1.5-1.1 2.5v5.7h-1.6v-10.7h1.6v2.4c.7-1.6 2.1-2.4 4.2-2.4 1.2-.1 2.2.3 2.9 1z" class="st0"/><path id="path2095" d="M147.3 98.6c.2.2.3.5.3.8 0 .3-.1.6-.3.8-.2.2-.4.3-.7.3-.3 0-.5-.1-.7-.3-.2-.2-.3-.5-.3-.8 0-.3.1-.6.3-.8.2-.2.4-.3.7-.3.2 0 .5.1.7.3zm-1.5 3.9h1.6v10.7h-1.6z" class="st0"/><path id="path2097" d="M149.4 102.5h1.7l3.4 9.1 3.4-9.1h1.6l-4.2 10.7h-1.6z" class="st0"/><path id="path2099" d="M169.2 104.1c.9 1.1 1.2 2.5 1.2 4.4h-8.7c.1 1.1.6 1.9 1.3 2.5.7.6 1.6 1 2.6 1 .6 0 1.3-.1 1.8-.4.6-.2 1.1-.6 1.5-1l.9.9c-.5.6-1.1 1-1.9 1.3-.7.3-1.5.5-2.4.5-1 0-2-.2-2.8-.7-.8-.5-1.4-1.1-1.9-1.9-.5-.8-.7-1.8-.7-2.8 0-1 .2-2 .7-2.8.5-.8 1.1-1.5 1.9-1.9.8-.5 1.7-.7 2.8-.7 1.6-.1 2.9.5 3.7 1.6zm-.2 3.1c-.1-1-.4-1.9-1-2.5-.6-.6-1.5-.9-2.5-.9s-1.9.3-2.6.9c-.7.6-1.1 1.4-1.2 2.5z" class="st0"/><path id="path2101" d="M176.3 103.1c.6-.4 1.4-.6 2.3-.6v1.5c-1.1 0-2 .3-2.7.9-.7.6-1.1 1.5-1.2 2.6v5.7h-1.6v-10.7h1.6v2.4c.5-.8 1-1.4 1.6-1.8z" class="st0"/><path id="path2103" d="M185.1 104c-.5-.1-1-.2-1.5-.2-.6 0-1.1.1-1.5.4-.4.2-.6.6-.6 1.1 0 .3.1.6.3.8.2.2.5.4.8.5.3.1.8.3 1.3.5.7.2 1.4.5 1.8.7.4.2.9.5 1.2.9.3.4.5.9.5 1.6 0 1-.4 1.7-1.1 2.3-.8.5-1.7.8-2.8.8-.8 0-1.5-.1-2.3-.4-.7-.3-1.4-.6-1.9-1.1l.6-1.2c.5.4 1 .7 1.6 1 .6.3 1.3.4 1.9.4.7 0 1.2-.1 1.7-.4.4-.3.6-.7.6-1.2s-.2-.9-.6-1.2c-.4-.3-1.1-.5-1.9-.8-.7-.2-1.3-.4-1.7-.6-.4-.2-.8-.5-1.1-.9-.3-.4-.5-.9-.5-1.6 0-1 .4-1.7 1.1-2.2.7-.5 1.6-.7 2.7-.7.6 0 1.2.1 1.8.3.6.2 1.1.4 1.6.7l-.6 1.2c-.4-.4-.8-.6-1.4-.7z" class="st0"/><path id="path2105" d="M191.7 98.6c.2.2.3.5.3.8 0 .3-.1.6-.3.8-.2.2-.4.3-.7.3-.3 0-.5-.1-.7-.3-.2-.2-.3-.5-.3-.8 0-.3.1-.6.3-.8.2-.2.4-.3.7-.3.3 0 .5.1.7.3zm-1.5 3.9h1.6v10.7h-1.6z" class="st0"/><path id="path2107" d="M205.6 98.1v15.1H204v-2.3c-.4.8-1 1.3-1.7 1.8-.7.4-1.5.6-2.5.6s-1.9-.2-2.7-.7c-.8-.5-1.4-1.1-1.8-1.9-.4-.8-.7-1.8-.7-2.8 0-1.1.2-2 .7-2.8.4-.8 1-1.5 1.8-1.9.8-.5 1.7-.7 2.7-.7.9 0 1.8.2 2.5.6.7.4 1.3 1 1.7 1.8v-6.7h1.6zm-3.5 13.3c.6-.3 1-.8 1.4-1.4.4-.6.5-1.3.5-2.1s-.2-1.5-.5-2.1c-.3-.6-.8-1.1-1.4-1.5-.6-.3-1.2-.5-2-.5-.7 0-1.4.2-2 .5-.6.3-1 .8-1.4 1.5-.4.7-.5 1.3-.5 2.1s.2 1.5.5 2.1c.3.6.8 1.1 1.4 1.4.6.3 1.3.5 2 .5.8 0 1.4-.2 2-.5z" class="st0"/><path id="path2109" d="M216.3 113.2v-1.7c-.9 1.2-2.2 1.7-3.9 1.7-.7 0-1.4-.1-1.9-.4-.6-.3-1-.7-1.3-1.2-.3-.5-.5-1-.5-1.6 0-.9.4-1.7 1.1-2.2.7-.6 1.7-.8 3-.8h3.5v-.7c0-.8-.2-1.4-.7-1.9-.5-.4-1.2-.7-2.1-.7-1.1 0-2.2.4-3.4 1.2l-.7-1.1c.8-.5 1.5-.9 2.1-1.1.6-.2 1.4-.3 2.3-.3 1.3 0 2.3.3 3 1 .7.7 1.1 1.5 1.1 2.7v7.1zm-1.3-1.9c.6-.4 1.1-1 1.3-1.8v-1.3H213c-1.8 0-2.7.6-2.7 1.7 0 .6.2 1.1.7 1.4.4.4 1 .5 1.8.5.8.1 1.6-.1 2.2-.5z" class="st0"/><path id="path2111" d="M231.3 98.1v15.1h-1.6v-2.3c-.4.8-1 1.3-1.7 1.8-.7.4-1.5.6-2.5.6s-1.9-.2-2.7-.7c-.8-.5-1.4-1.1-1.8-1.9-.4-.8-.7-1.8-.7-2.8 0-1.1.2-2 .7-2.8.4-.8 1-1.5 1.8-1.9.8-.5 1.7-.7 2.7-.7.9 0 1.8.2 2.5.6.7.4 1.3 1 1.7 1.8v-6.7h1.6zm-3.4 13.3c.6-.3 1-.8 1.4-1.4.4-.6.5-1.3.5-2.1s-.2-1.5-.5-2.1c-.3-.6-.8-1.1-1.4-1.5-.6-.3-1.2-.5-2-.5-.7 0-1.4.2-2 .5-.6.3-1 .8-1.4 1.5-.4.7-.5 1.3-.5 2.1s.2 1.5.5 2.1c.3.6.8 1.1 1.4 1.4.6.3 1.3.5 2 .5s1.4-.2 2-.5z" class="st0"/><path id="path2113" d="M251.4 98.1v15.1h-1.6v-2.3c-.4.8-1 1.3-1.7 1.8-.7.4-1.5.6-2.5.6s-1.9-.2-2.7-.7c-.8-.5-1.4-1.1-1.8-1.9-.4-.8-.7-1.8-.7-2.8 0-1.1.2-2 .7-2.8.4-.8 1-1.5 1.8-1.9.8-.5 1.7-.7 2.7-.7.9 0 1.8.2 2.5.6.7.4 1.3 1 1.7 1.8v-6.7h1.6zm-3.4 13.3c.6-.3 1-.8 1.4-1.4.4-.6.5-1.3.5-2.1s-.2-1.5-.5-2.1c-.3-.6-.8-1.1-1.4-1.5-.6-.3-1.2-.5-2-.5-.7 0-1.4.2-2 .5-.6.3-1 .8-1.4 1.5-.4.7-.5 1.3-.5 2.1s.2 1.5.5 2.1c.3.6.8 1.1 1.4 1.4.6.3 1.3.5 2 .5s1.4-.2 2-.5z" class="st0"/><path id="path2115" d="M263.6 104.1c.9 1.1 1.2 2.5 1.2 4.4H256c.1 1.1.6 1.9 1.3 2.5.7.6 1.6 1 2.6 1 .6 0 1.3-.1 1.8-.4.6-.2 1.1-.6 1.5-1l.9.9c-.5.6-1.1 1-1.9 1.3-.7.3-1.5.5-2.4.5-1 0-2-.2-2.8-.7-.8-.5-1.4-1.1-1.9-1.9-.5-.8-.7-1.8-.7-2.8 0-1 .2-2 .7-2.8.5-.8 1.1-1.5 1.9-1.9.8-.5 1.7-.7 2.8-.7 1.6-.1 2.9.5 3.8 1.6zm-.3 3.1c-.1-1-.4-1.9-1-2.5-.6-.6-1.5-.9-2.5-.9s-1.9.3-2.6.9c-.7.6-1.1 1.4-1.2 2.5z" class="st0"/><path id="path2117" d="M274 99h1.6v12.7h6.2v1.5H274Z" class="st0"/><path id="path2119" d="M291 113.2v-1.7c-.9 1.2-2.2 1.7-3.9 1.7-.7 0-1.4-.1-1.9-.4-.6-.3-1-.7-1.3-1.2-.3-.5-.5-1-.5-1.6 0-.9.4-1.7 1.1-2.2.7-.6 1.7-.8 3-.8h3.5v-.7c0-.8-.2-1.4-.7-1.9-.5-.4-1.2-.7-2.1-.7-1.1 0-2.2.4-3.4 1.2l-.7-1.1c.8-.5 1.5-.9 2.1-1.1.6-.2 1.4-.3 2.3-.3 1.3 0 2.3.3 3 1 .7.7 1.1 1.5 1.1 2.7v7.1zm-1.3-1.9c.6-.4 1.1-1 1.3-1.8v-1.3h-3.3c-1.8 0-2.7.6-2.7 1.7 0 .6.2 1.1.7 1.4.4.4 1 .5 1.8.5.8.1 1.6-.1 2.2-.5z" class="st0"/><path id="path2121" d="M302.6 99h1.6v12.7h6.2v1.5h-7.9V99Z" class="st0"/><path id="path2123" d="M319.7 113.2v-1.7c-.9 1.2-2.2 1.7-3.9 1.7-.7 0-1.4-.1-1.9-.4-.6-.3-1-.7-1.3-1.2-.3-.5-.5-1-.5-1.6 0-.9.4-1.7 1.1-2.2.7-.6 1.7-.8 3-.8h3.5v-.7c0-.8-.2-1.4-.7-1.9-.5-.4-1.2-.7-2.1-.7-1.1 0-2.2.4-3.4 1.2l-.7-1.1c.8-.5 1.5-.9 2.1-1.1.6-.2 1.4-.3 2.3-.3 1.3 0 2.3.3 3 1 .7.7 1.1 1.5 1.1 2.7v7.1zm-1.3-1.9c.6-.4 1.1-1 1.3-1.8v-1.3h-3.3c-1.8 0-2.7.6-2.7 1.7 0 .6.2 1.1.7 1.4.4.4 1 .5 1.8.5.8.1 1.6-.1 2.2-.5z" class="st0"/><path id="path2125" d="M334.2 102.5v9.6c0 1-.2 1.9-.7 2.7-.5.8-1.1 1.4-1.9 1.8-.8.4-1.8.6-2.8.6-1.6 0-3-.5-4.4-1.6l.7-1.2c.5.5 1.1.8 1.7 1 .6.2 1.2.3 1.9.3 1.2 0 2.1-.3 2.8-1 .7-.7 1-1.6 1-2.7v-1.6c-.4.7-.9 1.3-1.6 1.7-.7.4-1.5.6-2.4.6-.9 0-1.8-.2-2.5-.7-.7-.4-1.3-1.1-1.7-1.8-.4-.8-.6-1.7-.6-2.7 0-1 .2-1.9.6-2.7.4-.8 1-1.4 1.7-1.8.7-.4 1.6-.7 2.6-.7.9 0 1.7.2 2.3.6.7.4 1.2.9 1.6 1.7v-2.2h1.7zm-3.3 8.4c.6-.3 1-.8 1.3-1.4.3-.6.5-1.2.5-2 0-.7-.2-1.4-.5-2-.3-.6-.7-1-1.3-1.4-.6-.3-1.2-.5-1.9-.5s-1.3.2-1.9.5c-.6.3-1 .8-1.3 1.4-.3.6-.5 1.3-.5 2s.2 1.4.5 2c.3.6.8 1 1.3 1.4.6.3 1.2.5 1.9.5s1.3-.1 1.9-.5z" class="st0"/><path id="path2127" d="M347.2 102.5v10.7h-1.6v-2.4c-.7 1.6-2 2.5-4.1 2.5-1.2 0-2.2-.4-2.9-1.1-.7-.7-1.1-1.8-1.1-3.1v-6.6h1.6v6.2c0 .9.3 1.7.8 2.2.5.5 1.3.8 2.2.8 1.1 0 2-.4 2.6-1.1.6-.7.9-1.7.9-2.9v-5.2z" class="st0"/><path id="path2129" d="M359.9 103.5c.7.7 1.1 1.8 1.1 3.1v6.6h-1.6V107c0-.9-.3-1.7-.8-2.2-.5-.5-1.3-.8-2.2-.8-1 0-1.9.3-2.5 1-.6.6-1 1.5-1.1 2.5v5.7h-1.6v-10.7h1.6v2.4c.7-1.6 2.1-2.4 4.2-2.4 1.2-.1 2.2.3 2.9 1z" class="st0"/><path id="path2131" d="M371.3 113.2v-1.7c-.9 1.2-2.2 1.7-3.9 1.7-.7 0-1.4-.1-1.9-.4-.6-.3-1-.7-1.3-1.2-.3-.5-.5-1-.5-1.6 0-.9.4-1.7 1.1-2.2.7-.6 1.7-.8 3-.8h3.5v-.7c0-.8-.2-1.4-.7-1.9-.5-.4-1.2-.7-2.1-.7-1.1 0-2.2.4-3.4 1.2l-.7-1.1c.8-.5 1.5-.9 2.1-1.1.6-.2 1.4-.3 2.3-.3 1.3 0 2.3.3 3 1 .7.7 1.1 1.5 1.1 2.7v7.1zm-1.3-1.9c.6-.4 1.1-1 1.3-1.8v-1.3H368c-1.8 0-2.7.6-2.7 1.7 0 .6.2 1.1.7 1.4.4.4 1 .5 1.8.5.8.1 1.5-.1 2.2-.5z" class="st0"/></g><path id="polygon2135" d="M59.4 70.5V40h-.7l-14 13.4v31.3h14.7l13.7-13.2v13.2h14.6L102 71v-.5H87.7V40h-.6l-14 13.4v17.1z" class="st0"/></g></g></g></svg>