<svg xmlns="http://www.w3.org/2000/svg" id="svg5" width="415.092" height="77.3" version="1.1" viewBox="0 0 109.826 20.452"><defs id="defs2"><style id="style991">.st0{fill:#57068c}</style></defs><g id="layer1" transform="translate(-42.847 -122.74)"><g id="g1603" transform="matrix(.26458 0 0 .26458 28.274 111.099)"><g id="g1448"><g id="g1444"><path id="path1388" d="M135.3 51.8c-.7-.3-1.3-.5-2-.5-.8 0-1.5.2-2.2.6-.7.4-1.2.9-1.6 1.6-.4.7-.6 1.4-.6 2.3 0 .8.2 1.6.6 2.3.4.7.9 1.2 1.6 1.6.7.4 1.4.6 2.2.6.6 0 1.3-.2 1.9-.5.7-.3 1.2-.7 1.8-1.2l1.9 2c-.8.8-1.7 1.4-2.7 1.9-1 .5-2 .7-3.1.7-1.4 0-2.7-.3-3.8-1-1.1-.7-2-1.5-2.7-2.7-.7-1.1-1-2.4-1-3.8s.3-2.6 1-3.7 1.6-2 2.7-2.6c1.1-.6 2.4-1 3.9-1 1 0 2.1.2 3.1.6 1 .4 1.9 1 2.6 1.7L137 53c-.5-.4-1-.8-1.7-1.2z" class="st0"/><path id="path1390" d="M147.1 63v-1.3c-.4.5-.8.8-1.4 1.1-.6.2-1.3.4-2 .4-1.2 0-2.1-.3-2.7-.9-.7-.6-1-1.5-1-2.5s.4-1.8 1.1-2.4c.7-.6 1.8-.9 3.1-.9h3v-.2c0-.6-.2-1-.6-1.4-.4-.3-1-.5-1.7-.5-1 0-2.1.3-3.3 1l-1-2.2c.9-.4 1.7-.8 2.4-1 .7-.2 1.6-.3 2.5-.3 1.5 0 2.6.3 3.4 1 .8.7 1.2 1.7 1.2 2.9v7.1h-3zm-.8-2.6c.5-.3.8-.7.8-1.2v-1h-2.5c-.6 0-1.1.1-1.4.3-.3.2-.4.5-.4.9s.2.8.5 1c.3.3.7.4 1.2.4.7.1 1.3 0 1.8-.4zm-.3-13 2.8 1.1-2.8 2.2-2.3-.2z" class="st0"/><path id="path1392" d="M159.8 62.4c-.4.2-.9.4-1.4.6-.5.1-1 .2-1.5.2-1 0-1.8-.3-2.5-.9-.7-.6-1-1.4-1-2.5v-5.1H152v-2.2h1.5v-3h3.1v3h3v2.2h-3v4.5c0 .8.3 1.3 1 1.3.5 0 1-.1 1.5-.4z" class="st0"/><path id="path1394" d="M170.4 53.5c.9 1 1.4 2.4 1.4 4.3v.7H164c.2.7.5 1.2 1 1.6.5.4 1.1.6 1.8.6.5 0 1-.1 1.5-.3.5-.2.9-.5 1.3-.9l1.6 1.7c-.6.6-1.2 1.1-2 1.4-.8.3-1.7.5-2.7.5-1.2 0-2.2-.2-3-.7-.9-.5-1.5-1.1-2-2-.5-.8-.7-1.8-.7-2.9 0-1.1.2-2.1.7-2.9.5-.8 1.1-1.5 2-2 .9-.5 1.8-.7 2.9-.7 1.8.1 3.1.6 4 1.6zm-1.6 3.1c0-.7-.3-1.3-.7-1.7-.4-.4-1-.7-1.7-.7s-1.2.2-1.7.6c-.5.4-.7 1-.9 1.7h5z" class="st0"/><path id="path1396" d="M184.8 47.9V63h-3.1v-1.6c-.4.6-.9 1-1.5 1.3-.6.3-1.2.4-2 .4-1 0-1.9-.2-2.7-.7-.8-.5-1.4-1.1-1.8-2-.4-.9-.6-1.8-.6-3 0-1.1.2-2.1.6-2.9.4-.8 1-1.5 1.8-2s1.7-.7 2.7-.7c1.5 0 2.7.6 3.5 1.7v-5.8h3.1zm-3.9 11.9c.5-.6.8-1.3.8-2.2 0-.9-.3-1.6-.8-2.2-.5-.6-1.2-.8-2-.8s-1.5.3-2 .8-.8 1.3-.8 2.2c0 .9.3 1.6.8 2.2.5.6 1.2.8 2 .8s1.5-.3 2-.8z" class="st0"/><path id="path1398" d="M192.6 52.5c.6-.4 1.3-.5 2.1-.5v3h-.5c-1 0-1.7.3-2.3.8-.6.5-.8 1.2-.8 2.1V63H188V52h3.1v2c.4-.6.9-1.2 1.5-1.5z" class="st0"/><path id="path1400" d="M202.5 63v-1.3c-.4.5-.8.8-1.4 1.1-.6.2-1.3.4-2 .4-1.2 0-2.1-.3-2.7-.9-.7-.6-1-1.5-1-2.5s.4-1.8 1.1-2.4c.7-.6 1.8-.9 3.1-.9h3v-.2c0-.6-.2-1-.6-1.4-.4-.3-1-.5-1.7-.5-1 0-2.1.3-3.3 1l-1-2.2c.9-.4 1.7-.8 2.4-1 .7-.2 1.6-.3 2.5-.3 1.5 0 2.6.3 3.4 1 .8.7 1.2 1.7 1.2 2.9v7.1h-3zm-.8-2.6c.5-.3.8-.7.8-1.2v-1H200c-.6 0-1.1.1-1.4.3-.3.2-.4.5-.4.9s.2.8.5 1c.3.3.7.4 1.2.4.7.1 1.3 0 1.8-.4z" class="st0"/><path id="path1402" d="M129.8 114.7c.8.8 1.8 1.2 3.2 1.2 1.3 0 2.4-.4 3.2-1.2.8-.8 1.2-1.9 1.2-3.3V103h1.6v8.4c0 1.8-.5 3.3-1.6 4.3s-2.5 1.6-4.4 1.6c-1.9 0-3.3-.5-4.4-1.6-1.1-1.1-1.6-2.5-1.6-4.3V103h1.6v8.4c0 1.4.4 2.5 1.2 3.3z" class="st0"/><path id="path1404" d="M151.5 107.6c.7.7 1.1 1.8 1.1 3.1v6.6H151V111c0-.9-.3-1.7-.8-2.2-.5-.5-1.3-.8-2.2-.8-1 0-1.9.3-2.5 1-.6.6-1 1.5-1.1 2.5v5.7h-1.6v-10.7h1.6v2.4c.7-1.6 2.1-2.4 4.2-2.4 1.2-.1 2.2.3 2.9 1.1z" class="st0"/><path id="path1406" d="M157.7 102.6c.2.2.3.5.3.8 0 .3-.1.6-.3.8-.2.2-.4.3-.7.3-.3 0-.5-.1-.7-.3-.2-.2-.3-.5-.3-.8 0-.3.1-.6.3-.8.2-.2.4-.3.7-.3.3 0 .5.1.7.3zm-1.5 3.9h1.6v10.7h-1.6z" class="st0"/><path id="path1408" d="M159.9 106.5h1.7l3.4 9.1 3.4-9.1h1.6l-4.2 10.7h-1.6z" class="st0"/><path id="path1410" d="M179.7 108.1c.9 1.1 1.2 2.5 1.2 4.4h-8.7c.1 1.1.6 1.9 1.3 2.5.7.6 1.6 1 2.6 1 .6 0 1.3-.1 1.8-.4.6-.2 1.1-.6 1.5-1l.9.9c-.5.6-1.1 1-1.9 1.3-.7.3-1.5.5-2.4.5-1 0-2-.2-2.8-.7-.8-.5-1.4-1.1-1.9-1.9-.5-.8-.7-1.8-.7-2.8 0-1 .2-2 .7-2.8.5-.8 1.1-1.5 1.9-1.9.8-.5 1.7-.7 2.8-.7 1.5-.1 2.8.5 3.7 1.6zm-.3 3.1c-.1-1-.4-1.9-1-2.5-.6-.6-1.5-.9-2.5-.9s-1.9.3-2.6.9c-.7.6-1.1 1.4-1.2 2.5z" class="st0"/><path id="path1412" d="M186.8 107.1c.6-.4 1.4-.6 2.3-.6v1.5c-1.1 0-2 .3-2.7.9-.7.6-1.1 1.5-1.2 2.6v5.7h-1.6v-10.7h1.6v2.4c.4-.8.9-1.4 1.6-1.8z" class="st0"/><path id="path1414" d="M195.6 108c-.5-.1-1-.2-1.5-.2-.6 0-1.1.1-1.5.4-.4.2-.6.6-.6 1.1 0 .3.1.6.3.8.2.2.5.4.8.5.3.1.8.3 1.3.5.7.2 1.4.5 1.8.7.4.2.9.5 1.2.9.3.4.5.9.5 1.6 0 1-.4 1.7-1.1 2.3-.8.5-1.7.8-2.8.8-.8 0-1.5-.1-2.3-.4-.7-.3-1.4-.6-1.9-1.1l.6-1.2c.5.4 1 .7 1.6 1 .6.3 1.3.4 1.9.4.7 0 1.2-.1 1.7-.4.4-.3.6-.7.6-1.2s-.2-.9-.6-1.2c-.4-.3-1.1-.5-1.9-.8-.7-.2-1.3-.4-1.7-.6-.4-.2-.8-.5-1.1-.9-.3-.4-.5-.9-.5-1.6 0-1 .4-1.7 1.1-2.2.7-.5 1.6-.7 2.7-.7.6 0 1.2.1 1.8.3.6.2 1.1.4 1.6.7l-.6 1.2c-.4-.3-.9-.6-1.4-.7z" class="st0"/><path id="path1416" d="M202.1 102.6c.2.2.3.5.3.8 0 .3-.1.6-.3.8-.2.2-.4.3-.7.3-.3 0-.5-.1-.7-.3-.2-.2-.3-.5-.3-.8 0-.3.1-.6.3-.8.2-.2.4-.3.7-.3.3 0 .5.1.7.3zm-1.5 3.9h1.6v10.7h-1.6z" class="st0"/><path id="path1418" d="M216 102.1v15.1h-1.6v-2.3c-.4.8-1 1.3-1.7 1.8-.7.4-1.5.6-2.5.6s-1.9-.2-2.7-.7c-.8-.5-1.4-1.1-1.8-1.9-.4-.8-.7-1.8-.7-2.8 0-1.1.2-2 .7-2.8.4-.8 1-1.5 1.8-1.9.8-.5 1.7-.7 2.7-.7.9 0 1.8.2 2.5.6.7.4 1.3 1 1.7 1.8v-6.7zm-3.4 13.3c.6-.3 1-.8 1.4-1.4.4-.6.5-1.3.5-2.1s-.2-1.5-.5-2.1c-.3-.6-.8-1.1-1.4-1.5-.6-.3-1.2-.5-2-.5-.7 0-1.4.2-2 .5-.6.3-1 .8-1.4 1.5-.4.7-.5 1.3-.5 2.1s.2 1.5.5 2.1c.3.6.8 1.1 1.4 1.4.6.3 1.3.5 2 .5s1.4-.1 2-.5z" class="st0"/><path id="path1420" d="M226.7 117.2v-1.7c-.9 1.2-2.2 1.7-3.9 1.7-.7 0-1.4-.1-1.9-.4-.6-.3-1-.7-1.3-1.2-.3-.5-.5-1-.5-1.6 0-.9.4-1.7 1.1-2.2.7-.6 1.7-.8 3-.8h3.5v-.7c0-.8-.2-1.4-.7-1.9-.5-.4-1.2-.7-2.1-.7-1.1 0-2.2.4-3.4 1.2l-.7-1.1c.8-.5 1.5-.9 2.1-1.1.6-.2 1.4-.3 2.3-.3 1.3 0 2.3.3 3 1 .7.7 1.1 1.5 1.1 2.7v7.1zm-1.3-1.9c.6-.4 1.1-1 1.3-1.8v-1.3h-3.3c-1.8 0-2.7.6-2.7 1.7 0 .6.2 1.1.7 1.4.4.4 1 .5 1.8.5.8.1 1.6-.1 2.2-.5z" class="st0"/><path id="path1422" d="M241.8 102.1v15.1h-1.6v-2.3c-.4.8-1 1.3-1.7 1.8-.7.4-1.5.6-2.5.6s-1.9-.2-2.7-.7c-.8-.5-1.4-1.1-1.8-1.9-.4-.8-.7-1.8-.7-2.8 0-1.1.2-2 .7-2.8.4-.8 1-1.5 1.8-1.9.8-.5 1.7-.7 2.7-.7.9 0 1.8.2 2.5.6.7.4 1.3 1 1.7 1.8v-6.7zm-3.5 13.3c.6-.3 1-.8 1.4-1.4.4-.6.5-1.3.5-2.1s-.2-1.5-.5-2.1c-.3-.6-.8-1.1-1.4-1.5-.6-.3-1.2-.5-2-.5-.7 0-1.4.2-2 .5-.6.3-1 .8-1.4 1.5-.4.7-.5 1.3-.5 2.1s.2 1.5.5 2.1c.3.6.8 1.1 1.4 1.4.6.3 1.3.5 2 .5.8 0 1.4-.1 2-.5z" class="st0"/><path id="path1424" d="M261.9 102.1v15.1h-1.6v-2.3c-.4.8-1 1.3-1.7 1.8-.7.4-1.5.6-2.5.6s-1.9-.2-2.7-.7c-.8-.5-1.4-1.1-1.8-1.9-.4-.8-.7-1.8-.7-2.8 0-1.1.2-2 .7-2.8.4-.8 1-1.5 1.8-1.9.8-.5 1.7-.7 2.7-.7.9 0 1.8.2 2.5.6.7.4 1.3 1 1.7 1.8v-6.7zm-3.5 13.3c.6-.3 1-.8 1.4-1.4.4-.6.5-1.3.5-2.1s-.2-1.5-.5-2.1c-.3-.6-.8-1.1-1.4-1.5-.6-.3-1.2-.5-2-.5-.7 0-1.4.2-2 .5-.6.3-1 .8-1.4 1.5-.4.7-.5 1.3-.5 2.1s.2 1.5.5 2.1c.3.6.8 1.1 1.4 1.4.6.3 1.3.5 2 .5.8 0 1.4-.1 2-.5z" class="st0"/><path id="path1426" d="M274 108.1c.9 1.1 1.2 2.5 1.2 4.4h-8.7c.1 1.1.6 1.9 1.3 2.5.7.6 1.6 1 2.6 1 .6 0 1.3-.1 1.8-.4.6-.2 1.1-.6 1.5-1l.9.9c-.5.6-1.1 1-1.9 1.3-.7.3-1.5.5-2.4.5-1 0-2-.2-2.8-.7-.8-.5-1.4-1.1-1.9-1.9-.5-.8-.7-1.8-.7-2.8 0-1 .2-2 .7-2.8.5-.8 1.1-1.5 1.9-1.9.8-.5 1.7-.7 2.8-.7 1.6-.1 2.9.5 3.7 1.6zm-.2 3.1c-.1-1-.4-1.9-1-2.5-.6-.6-1.5-.9-2.5-.9s-1.9.3-2.6.9c-.7.6-1.1 1.4-1.2 2.5z" class="st0"/><path id="path1428" d="M284.4 103h1.6v12.7h6.2v1.5h-7.9z" class="st0"/><path id="path1430" d="M301.5 117.2v-1.7c-.9 1.2-2.2 1.7-3.9 1.7-.7 0-1.4-.1-1.9-.4-.6-.3-1-.7-1.3-1.2-.3-.5-.5-1-.5-1.6 0-.9.4-1.7 1.1-2.2.7-.6 1.7-.8 3-.8h3.5v-.7c0-.8-.2-1.4-.7-1.9-.5-.4-1.2-.7-2.1-.7-1.1 0-2.2.4-3.4 1.2l-.7-1.1c.8-.5 1.5-.9 2.1-1.1.6-.2 1.4-.3 2.3-.3 1.3 0 2.3.3 3 1 .7.7 1.1 1.5 1.1 2.7v7.1zm-1.3-1.9c.6-.4 1.1-1 1.3-1.8v-1.3h-3.3c-1.8 0-2.7.6-2.7 1.7 0 .6.2 1.1.7 1.4.4.4 1 .5 1.8.5.8.1 1.5-.1 2.2-.5z" class="st0"/><path id="path1432" d="M313.1 103h1.6v12.7h6.2v1.5H313Z" class="st0"/><path id="path1434" d="M330.1 117.2v-1.7c-.9 1.2-2.2 1.7-3.9 1.7-.7 0-1.4-.1-1.9-.4-.6-.3-1-.7-1.3-1.2-.3-.5-.5-1-.5-1.6 0-.9.4-1.7 1.1-2.2.7-.6 1.7-.8 3-.8h3.5v-.7c0-.8-.2-1.4-.7-1.9-.5-.4-1.2-.7-2.1-.7-1.1 0-2.2.4-3.4 1.2l-.7-1.1c.8-.5 1.5-.9 2.1-1.1.6-.2 1.4-.3 2.3-.3 1.3 0 2.3.3 3 1 .7.7 1.1 1.5 1.1 2.7v7.1zm-1.3-1.9c.6-.4 1.1-1 1.3-1.8v-1.3h-3.3c-1.8 0-2.7.6-2.7 1.7 0 .6.2 1.1.7 1.4.4.4 1 .5 1.8.5.8.1 1.6-.1 2.2-.5z" class="st0"/><path id="path1436" d="M344.7 106.5v9.6c0 1-.2 1.9-.7 2.7-.5.8-1.1 1.4-1.9 1.8-.8.4-1.8.6-2.8.6-1.6 0-3-.5-4.4-1.6l.7-1.2c.5.5 1.1.8 1.7 1 .6.2 1.2.3 1.9.3 1.2 0 2.1-.3 2.8-1 .7-.7 1-1.6 1-2.7v-1.6c-.4.7-.9 1.3-1.6 1.7-.7.4-1.5.6-2.4.6-.9 0-1.8-.2-2.5-.7-.7-.4-1.3-1.1-1.7-1.8-.4-.8-.6-1.7-.6-2.7 0-1 .2-1.9.6-2.7.4-.8 1-1.4 1.7-1.8.7-.4 1.6-.7 2.6-.7.9 0 1.7.2 2.3.6.7.4 1.2.9 1.6 1.7v-2.2zm-3.4 8.5c.6-.3 1-.8 1.3-1.4.3-.6.5-1.2.5-2 0-.7-.2-1.4-.5-2-.3-.6-.7-1-1.3-1.4-.6-.3-1.2-.5-1.9-.5s-1.3.2-1.9.5c-.6.3-1 .8-1.3 1.4-.3.6-.5 1.3-.5 2s.2 1.4.5 2c.3.6.8 1 1.3 1.4.6.3 1.2.5 1.9.5.7-.1 1.3-.2 1.9-.5z" class="st0"/><path id="path1438" d="M357.6 106.5v10.7H356v-2.4c-.7 1.6-2 2.5-4.1 2.5-1.2 0-2.2-.4-2.9-1.1-.7-.7-1.1-1.8-1.1-3.1v-6.6h1.6v6.2c0 .9.3 1.7.8 2.2.5.5 1.3.8 2.2.8 1.1 0 2-.4 2.6-1.1.6-.7.9-1.7.9-2.9v-5.2z" class="st0"/><path id="path1440" d="M370.4 107.6c.7.7 1.1 1.8 1.1 3.1v6.6h-1.6V111c0-.9-.3-1.7-.8-2.2-.5-.5-1.3-.8-2.2-.8-1 0-1.9.3-2.5 1-.6.6-1 1.5-1.1 2.5v5.7h-1.6v-10.7h1.6v2.4c.7-1.6 2.1-2.4 4.2-2.4 1.1-.1 2.1.3 2.9 1.1z" class="st0"/><path id="path1442" d="M381.7 117.2v-1.7c-.9 1.2-2.2 1.7-3.9 1.7-.7 0-1.4-.1-1.9-.4-.6-.3-1-.7-1.3-1.2-.3-.5-.5-1-.5-1.6 0-.9.4-1.7 1.1-2.2.7-.6 1.7-.8 3-.8h3.5v-.7c0-.8-.2-1.4-.7-1.9-.5-.4-1.2-.7-2.1-.7-1.1 0-2.2.4-3.4 1.2l-.7-1.1c.8-.5 1.5-.9 2.1-1.1.6-.2 1.4-.3 2.3-.3 1.3 0 2.3.3 3 1 .7.7 1.1 1.5 1.1 2.7v7.1zm-1.3-1.9c.6-.4 1.1-1 1.3-1.8v-1.3h-3.3c-1.8 0-2.7.6-2.7 1.7 0 .6.2 1.1.7 1.4.4.4 1 .5 1.8.5.8.1 1.6-.1 2.2-.5z" class="st0"/></g><path id="polygon1446" d="M66.8 88.7h3l13.7-13.2v13.2h14.6L112.4 75v-.5H98.1V44h-.6l-14 13.4v17.1H69.8V44h-.6l-14 13.4v31.3z" class="st0"/></g><g id="g1485"><path id="path1451" d="M222.5 52.1c-.6-.3-1.2-.5-1.9-.5s-1.4.2-1.9.5-1 .8-1.4 1.5c-.4.7-.5 1.3-.5 2.1s.2 1.5.5 2.1c.3.6.8 1.1 1.4 1.5.6.4 1.2.5 1.9.5.6 0 1.2-.1 1.8-.4.6-.3 1.2-.7 1.7-1.2l2.1 2.3c-.8.8-1.7 1.4-2.7 1.9-1 .5-2.1.7-3.1.7-1.4 0-2.6-.3-3.8-1-1.2-.7-2-1.5-2.6-2.6-.6-1.1-1-2.3-1-3.7 0-1.4.3-2.6 1-3.7s1.6-2 2.7-2.6c1.1-.6 2.4-.9 3.8-.9 1 0 2.1.2 3.1.6 1 .4 1.9 1 2.6 1.8l-2.1 2.6c-.5-.7-1-1.2-1.6-1.5z" class="st0"/><path id="path1453" d="M236 52.8c.8.7 1.2 1.6 1.3 2.9v7h-3.5v-1.2c-.7.9-1.8 1.4-3.3 1.4-1.1 0-2-.3-2.7-.9-.7-.6-1-1.4-1-2.5 0-1 .4-1.8 1.1-2.4.7-.6 1.7-.9 3.1-.9h2.8v-.1c0-.5-.2-.9-.5-1.2-.3-.3-.9-.4-1.5-.4-.5 0-1 .1-1.5.2s-1.1.4-1.7.6l-1-2.4c.9-.4 1.7-.7 2.5-.9.8-.2 1.6-.3 2.5-.3 1.5 0 2.6.4 3.4 1.1zm-3 7.2c.4-.3.7-.6.8-1v-.9h-2.1c-1 0-1.5.4-1.5 1.1 0 .4.1.7.4.9.3.2.6.3 1.1.3.5 0 .9-.1 1.3-.4z" class="st0"/><path id="path1455" d="M238.7 63.9c.3 0 .6-.1.8-.3.2-.2.3-.6.3-1V51.9h3.6v11.2c0 1.1-.3 2-1 2.7-.7.7-1.6 1-2.8 1-.8 0-1.6-.1-2.4-.4l.7-2.5c.2-.1.5 0 .8 0zm4.1-16.5c.4.4.5.8.5 1.4 0 .5-.2 1-.5 1.4-.3.4-.8.5-1.3.5s-1-.2-1.4-.5c-.4-.3-.5-.8-.5-1.4 0-.6.2-1 .5-1.4.3-.4.8-.5 1.4-.5.6 0 1 .2 1.3.5z" class="st0"/><path id="path1457" d="M254.3 52.8c.8.7 1.2 1.6 1.3 2.9v7H252v-1.2c-.7.9-1.8 1.4-3.3 1.4-1.1 0-2-.3-2.7-.9-.7-.6-1-1.4-1-2.5 0-1 .4-1.8 1.1-2.4.7-.6 1.7-.9 3.1-.9h2.8v-.1c0-.5-.2-.9-.5-1.2-.3-.3-.9-.4-1.5-.4-.5 0-1 .1-1.5.2s-1.1.4-1.7.6l-1-2.4c.9-.4 1.7-.7 2.5-.9.8-.2 1.6-.3 2.5-.3 1.5 0 2.7.4 3.5 1.1zm-3 7.2c.4-.3.7-.6.8-1v-.9H250c-1 0-1.5.4-1.5 1.1 0 .4.1.7.4.9.3.2.6.3 1.1.3.4 0 .9-.1 1.3-.4z" class="st0"/><path id="path1459" d="M261.7 54.2c-.3 0-.6.1-.7.2-.1.1-.3.3-.3.5s.1.4.4.6c.3.2.8.3 1.4.5.8.2 1.4.5 1.9.7.5.2 1 .6 1.3 1 .3.4.6 1 .6 1.8 0 1.1-.4 1.9-1.3 2.6-.9.7-2 .9-3.3.9-.9 0-1.8-.1-2.6-.4-.8-.3-1.6-.6-2.2-1.1L258 59c.6.4 1.3.8 1.9 1 .6.2 1.3.3 1.9.3.3 0 .6-.1.8-.2.2-.1.3-.3.3-.5 0-.3-.1-.5-.4-.6-.3-.1-.8-.3-1.4-.5-.8-.2-1.4-.5-1.9-.7-.5-.2-.9-.5-1.3-1s-.6-1-.6-1.7c0-1.1.4-1.9 1.2-2.6.8-.7 1.9-.9 3.2-.9.8 0 1.6.1 2.3.3.7.2 1.5.5 2.2.9l-1.2 2.3c-1.2-.5-2.4-.9-3.3-.9z" class="st0"/><path id="path1461" d="M271.4 47.4c.4.4.5.8.5 1.4 0 .5-.2 1-.5 1.4-.3.4-.8.5-1.3.5s-1-.2-1.4-.5c-.4-.3-.5-.8-.5-1.4 0-.6.2-1 .5-1.4.3-.4.8-.5 1.4-.5.6 0 .9.2 1.3.5zm-3.1 4.5h3.5v10.8h-3.5z" class="st0"/><path id="path1463" d="M283.3 53.3c.9 1 1.4 2.5 1.4 4.3v.6h-7.5c.2.6.5 1.1.9 1.4.4.3.9.5 1.6.5.5 0 .9-.1 1.3-.3.4-.2.8-.5 1.2-.8l1.9 1.9c-.6.6-1.2 1.1-2 1.4-.8.3-1.7.5-2.7.5-1.2 0-2.2-.2-3-.7-.8-.5-1.5-1.1-2-1.9-.5-.8-.7-1.8-.7-2.9 0-1.1.2-2.1.7-2.9.5-.8 1.1-1.5 2-2 .9-.5 1.8-.7 3-.7 1.6.1 3 .6 3.9 1.6zm-2 3c0-.6-.2-1.1-.6-1.5-.4-.4-.9-.6-1.5-.6s-1 .2-1.4.6c-.4.4-.6.9-.7 1.5z" class="st0"/><path id="path1465" d="M293.6 62.1c-.4.2-.9.4-1.4.5-.5.1-1 .2-1.6.2-1.1 0-1.9-.3-2.6-.9-.7-.6-1-1.5-1-2.5v-4.6h-1.5v-2.4h1.5v-3h3.5v3h2.8v2.4h-2.8v4.1c0 .8.3 1.1.9 1.1.4 0 .8-.1 1.4-.4z" class="st0"/><path id="path1467" d="M304.1 53.3c.9 1 1.4 2.5 1.4 4.3v.6H298c.2.6.5 1.1.9 1.4.4.3.9.5 1.6.5.5 0 .9-.1 1.3-.3.4-.2.8-.5 1.2-.8l1.9 1.9c-.6.6-1.2 1.1-2 1.4-.8.3-1.7.5-2.7.5-1.2 0-2.2-.2-3-.7-.8-.5-1.5-1.1-2-1.9-.5-.8-.7-1.8-.7-2.9 0-1.1.2-2.1.7-2.9.5-.8 1.1-1.5 2-2 .9-.5 1.8-.7 3-.7 1.6.1 2.9.6 3.9 1.6zm-2.1 3c0-.6-.2-1.1-.6-1.5-.4-.4-.9-.6-1.5-.6s-1 .2-1.4.6c-.4.4-.6.9-.7 1.5z" class="st0"/><path id="path1469" d="M322.7 49.1c.8.3 1.4.7 1.8 1.2.4.5.6 1.2.6 1.9s-.2 1.4-.6 1.9c-.4.5-1 .9-1.8 1.1.9.2 1.6.6 2.1 1.2s.8 1.4.8 2.3c0 .8-.2 1.5-.7 2.1-.5.6-1.1 1-1.9 1.4-.8.4-1.8.5-2.9.5h-6.9v-14h6.7c1.1 0 2 .1 2.8.4zm-1.7 4.8c.3-.2.4-.6.4-1s-.1-.8-.4-1c-.3-.2-.7-.3-1.2-.3H317v2.7h2.8c.5 0 .9-.2 1.2-.4zm.3 5.6c.4-.3.6-.6.6-1.1 0-.4-.2-.8-.6-1.1-.4-.3-.9-.4-1.5-.4H317v2.9h2.8c.6.1 1.1-.1 1.5-.3z" class="st0"/><path id="path1471" d="M330.7 47.4c.4.4.5.8.5 1.4 0 .5-.2 1-.5 1.4-.3.4-.8.5-1.3.5s-1-.2-1.4-.5c-.4-.3-.5-.8-.5-1.4 0-.6.2-1 .5-1.4.3-.4.8-.5 1.4-.5.6 0 1 .2 1.3.5zm-3.1 4.5h3.5v10.8h-3.5z" class="st0"/><path id="path1473" d="M344.2 51.9v9.9c0 1-.2 1.9-.7 2.6-.5.7-1.2 1.3-2.1 1.7-.9.4-1.9.6-3.1.6-.9 0-1.8-.1-2.6-.4-.8-.3-1.6-.6-2.2-1l1.2-2.5c.5.3 1 .6 1.6.8.6.2 1.2.3 1.7.3.8 0 1.4-.2 1.9-.6.5-.4.7-.9.7-1.5v-1.2c-.7.9-1.8 1.4-3.1 1.4-.9 0-1.7-.2-2.4-.7-.7-.5-1.2-1-1.6-1.8-.4-.8-.6-1.7-.6-2.7 0-1 .2-1.9.6-2.7.4-.8.9-1.4 1.6-1.8.7-.4 1.5-.6 2.4-.6.7 0 1.3.1 1.8.4.5.3 1 .6 1.4 1.1v-1.3zm-4.1 6.9c.4-.5.6-1.1.6-1.8 0-.8-.2-1.4-.6-1.8-.4-.4-.9-.7-1.6-.7-.7 0-1.2.2-1.6.7-.4.5-.6 1.1-.6 1.8s.2 1.4.6 1.8c.4.4.9.7 1.6.7.7 0 1.2-.2 1.6-.7z" class="st0"/><path id="path1475" d="M362.8 49.6c1.1.6 2 1.4 2.6 2.5.6 1.1.9 2.3.9 3.6 0 1.3-.3 2.6-1 3.7s-1.5 1.9-2.7 2.5c-1.2.6-2.5.9-4 .9h-5.9v-14h6c1.6-.1 2.9.2 4.1.8zm-2 9.6c.5-.3 1-.8 1.3-1.4.3-.6.5-1.3.5-2.1s-.2-1.5-.5-2.1c-.3-.6-.8-1.1-1.4-1.4-.6-.3-1.2-.5-2-.5h-2.3v8.1h2.5c.8-.1 1.4-.2 1.9-.6z" class="st0"/><path id="path1477" d="M376.5 52.8c.8.7 1.2 1.6 1.3 2.9v7h-3.5v-1.2c-.7.9-1.8 1.4-3.3 1.4-1.1 0-2-.3-2.7-.9-.7-.6-1-1.4-1-2.5 0-1 .4-1.8 1.1-2.4.7-.6 1.7-.9 3.1-.9h2.8v-.1c0-.5-.2-.9-.5-1.2-.3-.3-.9-.4-1.5-.4-.5 0-1 .1-1.5.2s-1.1.4-1.7.6l-1-2.4c.9-.4 1.7-.7 2.5-.9.8-.2 1.6-.3 2.5-.3 1.4 0 2.6.4 3.4 1.1zm-3 7.2c.4-.3.7-.6.8-1v-.9h-2.1c-1 0-1.5.4-1.5 1.1 0 .4.1.7.4.9.3.2.6.3 1.1.3.4 0 .9-.1 1.3-.4z" class="st0"/><path id="path1479" d="M387.2 62.1c-.4.2-.9.4-1.4.5-.5.1-1 .2-1.6.2-1.1 0-1.9-.3-2.6-.9-.7-.6-1-1.5-1-2.5v-4.6h-1.5v-2.4h1.5v-3h3.5v3h2.8v2.4h-2.8v4.1c0 .8.3 1.1.9 1.1.4 0 .8-.1 1.4-.4z" class="st0"/><path id="path1481" d="M397.2 52.8c.8.7 1.2 1.6 1.3 2.9v7H395v-1.2c-.7.9-1.8 1.4-3.3 1.4-1.1 0-2-.3-2.7-.9-.7-.6-1-1.4-1-2.5 0-1 .4-1.8 1.1-2.4.7-.6 1.7-.9 3.1-.9h2.8v-.1c0-.5-.2-.9-.5-1.2-.3-.3-.9-.4-1.5-.4-.5 0-1 .1-1.5.2s-1.1.4-1.7.6l-1-2.4c.9-.4 1.7-.7 2.5-.9.8-.2 1.6-.3 2.5-.3 1.5 0 2.6.4 3.4 1.1zm-3 7.2c.4-.3.7-.6.8-1v-.9h-2.1c-1 0-1.5.4-1.5 1.1 0 .4.1.7.4.9.3.2.6.3 1.1.3.5 0 .9-.1 1.3-.4z" class="st0"/><path id="path1483" d="M403.2 59.9c.3.3.5.7.5 1.3 0 .4-.2.8-.5 1.4l-1.6 2.7h-1.7l1-2.7c-.5-.3-.7-.8-.7-1.4 0-.5.2-.9.5-1.2.3-.3.7-.5 1.2-.5.6-.1 1 .1 1.3.4z" class="st0"/></g><g id="g1525"><path id="path1487" d="M138.6 77c1.2.6 2.1 1.5 2.7 2.6.6 1.1 1 2.3 1 3.7 0 1.4-.3 2.6-1 3.7s-1.6 2-2.7 2.6c-1.1.6-2.4 1-3.9 1s-2.7-.3-3.9-1c-1.2-.7-2.1-1.5-2.7-2.6-.6-1.1-1-2.4-1-3.7 0-1.4.3-2.6 1-3.7s1.6-2 2.7-2.6c1.1-.6 2.4-.9 3.9-.9s2.8.3 3.9.9zm-5.7 2.7c-.6.4-1.1.9-1.4 1.5-.3.6-.5 1.3-.5 2.1s.2 1.5.5 2.1c.3.6.8 1.1 1.4 1.5.6.4 1.2.6 1.9.6s1.3-.2 1.9-.6c.6-.4 1-.9 1.4-1.5.4-.6.5-1.3.5-2.1s-.2-1.5-.5-2.1c-.3-.6-.8-1.1-1.4-1.5-.6-.4-1.2-.5-1.9-.5s-1.4.2-1.9.5z" class="st0"/><path id="path1489" d="M153.6 80.1c.8.5 1.4 1.1 1.8 2 .4.8.6 1.8.6 2.9 0 1.1-.2 2.1-.6 2.9-.4.8-1 1.5-1.7 1.9-.7.4-1.6.7-2.6.7-.7 0-1.3-.1-1.9-.4-.6-.3-1-.6-1.4-1.1v5.3h-3.6V79.5h3.6v1.4c.8-1 1.8-1.5 3.2-1.5 1 0 1.9.2 2.6.7zm-1.8 6.7c.4-.5.6-1.1.6-1.9 0-.8-.2-1.5-.6-2-.4-.5-1-.8-1.7-.8s-1.2.3-1.7.8c-.4.5-.6 1.2-.6 2s.2 1.4.6 1.9c.4.5 1 .7 1.7.7.7.1 1.3-.2 1.7-.7z" class="st0"/><path id="path1491" d="M166.7 81c.9 1 1.4 2.5 1.4 4.3v.6h-7.5c.2.6.5 1.1.9 1.4.4.3.9.5 1.6.5.5 0 .9-.1 1.3-.3.4-.2.8-.5 1.2-.8l1.9 1.9c-.6.6-1.2 1.1-2 1.4-.8.3-1.7.5-2.7.5-1.2 0-2.2-.2-3-.7-.8-.5-1.5-1.1-2-1.9-.5-.8-.8-1.8-.8-2.9 0-1.1.2-2.1.7-2.9.5-.8 1.1-1.5 2-2 .9-.5 1.8-.7 3-.7 1.7 0 3 .5 4 1.6zm-2.1 3c0-.6-.2-1.1-.6-1.5-.4-.4-.9-.6-1.5-.6s-1 .2-1.4.6c-.4.4-.6.9-.7 1.5z" class="st0"/><path id="path1493" d="M179.9 80.5c.7.7 1.1 1.8 1.1 3v6.8h-3.5v-5.8c0-.6-.2-1.1-.5-1.5-.3-.4-.8-.5-1.3-.5-.6 0-1.1.2-1.5.6-.4.4-.6.9-.7 1.5v5.7h-3.6V79.5h3.6v1.8c.4-.6.9-1.1 1.5-1.4.6-.3 1.3-.5 2.1-.5 1.1 0 2.1.4 2.8 1.1z" class="st0"/><path id="path1495" d="M199.3 77.2c1.1.6 2 1.4 2.6 2.5.6 1.1.9 2.3.9 3.6 0 1.4-.3 2.6-1 3.7s-1.5 1.9-2.7 2.5c-1.2.6-2.5.9-4 .9h-5.9v-14h6c1.7-.1 3 .2 4.1.8zm-1.9 9.7c.5-.3 1-.8 1.3-1.4.3-.6.5-1.3.5-2.1s-.2-1.5-.5-2.1c-.3-.6-.8-1.1-1.4-1.4-.6-.3-1.2-.5-2-.5H193v8.1h2.5c.7-.1 1.3-.3 1.9-.6z" class="st0"/><path id="path1497" d="M213 80.4c.8.7 1.2 1.6 1.3 2.9v7h-3.5v-1.2c-.7.9-1.8 1.4-3.3 1.4-1.1 0-2-.3-2.7-.9-.7-.6-1-1.4-1-2.5 0-1 .4-1.8 1.1-2.4.7-.6 1.7-.9 3.1-.9h2.8v-.1c0-.5-.2-.9-.5-1.2-.4-.3-.9-.4-1.5-.4-.5 0-1 .1-1.5.2s-1.1.4-1.7.6l-1-2.4c.9-.4 1.7-.7 2.5-.9.8-.2 1.6-.3 2.5-.3 1.5.1 2.6.4 3.4 1.1zm-3 7.3c.4-.3.7-.6.8-1v-.9h-2.1c-1 0-1.5.4-1.5 1.1 0 .4.1.7.4.9.3.2.6.3 1.1.3.5 0 .9-.1 1.3-.4z" class="st0"/><path id="path1499" d="M223.7 89.8c-.4.2-.9.4-1.4.5-.5.1-1 .2-1.6.2-1.1 0-1.9-.3-2.6-.9-.7-.6-1-1.5-1-2.5v-4.6h-1.5V80h1.5v-3h3.5v3h2.8v2.4h-2.8v4.1c0 .8.3 1.1.9 1.1.4 0 .8-.1 1.4-.4z" class="st0"/><path id="path1501" d="M233.8 80.4c.8.7 1.2 1.6 1.3 2.9v7h-3.5v-1.2c-.7.9-1.8 1.4-3.3 1.4-1.1 0-2-.3-2.7-.9-.7-.6-1-1.4-1-2.5 0-1 .4-1.8 1.1-2.4.7-.6 1.7-.9 3.1-.9h2.8v-.1c0-.5-.2-.9-.5-1.2-.4-.3-.9-.4-1.5-.4-.5 0-1 .1-1.5.2s-1.1.4-1.7.6l-1-2.4c.9-.4 1.7-.7 2.5-.9.8-.2 1.6-.3 2.5-.3 1.4.1 2.6.4 3.4 1.1zm-3 7.3c.4-.3.7-.6.8-1v-.9h-2.1c-1 0-1.5.4-1.5 1.1 0 .4.1.7.4.9.3.2.6.3 1.1.3.4 0 .9-.1 1.3-.4z" class="st0"/><path id="path1503" d="M247.6 93.7c-.7.5-1.6.7-2.6.7-.6 0-1.2-.1-1.7-.3-.5-.2-1-.5-1.5-.8l1.5-2.5c.3.2.5.4.7.5.2.1.5.1.7.1.6 0 1-.3 1.3-.8l.3-.5-4.5-10.6h3.7l2.6 7 2.3-7h3.5l-4.6 11.9c-.4 1-1 1.8-1.7 2.3z" class="st0"/><path id="path1505" d="M270.5 76.8c.8.3 1.4.7 1.8 1.2.4.5.6 1.2.6 1.9s-.2 1.4-.6 1.9c-.4.5-1 .9-1.8 1.1.9.2 1.6.6 2.1 1.2s.8 1.4.8 2.3c0 .8-.2 1.5-.7 2.1-.5.6-1.1 1-1.9 1.4-.8.3-1.8.5-2.9.5H261v-14h6.7c1.1-.1 2 .1 2.8.4zm-1.7 4.7c.3-.2.4-.6.4-1s-.1-.8-.4-1c-.3-.2-.7-.3-1.2-.3h-2.8v2.7h2.8c.5 0 .9-.1 1.2-.4zm.3 5.6c.4-.3.6-.6.6-1.1 0-.4-.2-.8-.6-1.1-.4-.3-.9-.4-1.5-.4h-2.8v2.9h2.8c.6.1 1.1 0 1.5-.3z" class="st0"/><path id="path1507" d="M275.5 75.5h3.6v14.8h-3.6z" class="st0"/><path id="path1509" d="M290 80.1c.9.5 1.6 1.1 2.1 1.9.5.8.7 1.8.7 2.9 0 1.1-.2 2.1-.7 2.9-.5.8-1.2 1.5-2.1 1.9-.9.5-1.9.7-3.1.7-1.2 0-2.2-.2-3.1-.7-.9-.5-1.6-1.1-2.1-1.9-.5-.8-.7-1.8-.7-2.9 0-1.1.2-2.1.7-2.9.5-.8 1.2-1.5 2.1-1.9.9-.5 1.9-.7 3.1-.7 1.2 0 2.2.2 3.1.7zm-4.8 2.9c-.4.5-.6 1.1-.6 1.9 0 .8.2 1.5.6 2 .4.5 1 .7 1.7.7s1.3-.2 1.7-.7c.4-.5.6-1.1.6-2 0-.8-.2-1.4-.6-1.9-.4-.5-1-.7-1.7-.7s-1.2.2-1.7.7z" class="st0"/><path id="path1511" d="M299.5 82.3c-.6 0-1.2.2-1.6.7-.4.5-.6 1.1-.6 1.9 0 .8.2 1.4.6 1.9.4.5.9.7 1.6.7 1 0 1.7-.4 2.1-1.2l2.6 1.5c-.4.8-1.1 1.5-1.9 1.9-.8.4-1.9.7-3 .7s-2.1-.2-2.9-.7c-.8-.5-1.5-1.1-1.9-1.9-.4-.8-.7-1.8-.7-2.9 0-1.1.2-2.1.7-2.9.5-.8 1.1-1.5 2-2 .8-.5 1.8-.7 2.9-.7 1.1 0 2 .2 2.9.7.9.5 1.5 1.1 2 1.9l-2.6 1.5c-.6-.7-1.3-1.1-2.2-1.1z" class="st0"/><path id="path1513" d="m312.9 90.3-2.3-4.1-1.1 1.1v2.9H306V75.5h3.6v7.7l3.5-3.7h4l-4 4.2 4 6.6z" class="st0"/><path id="path1515" d="M322.8 82.3c-.6 0-1.2.2-1.6.7-.4.5-.6 1.1-.6 1.9 0 .8.2 1.4.6 1.9.4.5.9.7 1.6.7 1 0 1.7-.4 2.1-1.2l2.6 1.5c-.4.8-1.1 1.5-1.9 1.9-.8.4-1.9.7-3 .7s-2.1-.2-2.9-.7c-.8-.5-1.5-1.1-1.9-1.9-.4-.8-.7-1.8-.7-2.9 0-1.1.2-2.1.7-2.9.5-.8 1.1-1.5 2-2 .8-.5 1.8-.7 2.9-.7 1.1 0 2 .2 2.9.7.9.5 1.5 1.1 2 1.9l-2.6 1.5c-.5-.7-1.3-1.1-2.2-1.1z" class="st0"/><path id="path1517" d="M339.3 80.5c.7.7 1.1 1.8 1.1 3v6.8h-3.6v-5.8c0-.6-.2-1.1-.5-1.5-.3-.4-.8-.5-1.4-.5-.7 0-1.2.2-1.5.7-.3.5-.6 1-.6 1.7v5.3h-3.6V75.5h3.6v5.8c.4-.6.9-1.1 1.5-1.4.6-.3 1.3-.5 2.1-.5 1.3 0 2.2.4 2.9 1.1z" class="st0"/><path id="path1519" d="M351.1 80.4c.8.7 1.2 1.6 1.3 2.9v7h-3.5v-1.2c-.7.9-1.8 1.4-3.3 1.4-1.1 0-2-.3-2.7-.9-.7-.6-1-1.4-1-2.5 0-1 .4-1.8 1.1-2.4.7-.6 1.7-.9 3.1-.9h2.8v-.1c0-.5-.2-.9-.5-1.2-.4-.3-.9-.4-1.5-.4-.5 0-1 .1-1.5.2s-1.1.4-1.7.6l-1-2.4c.9-.4 1.7-.7 2.5-.9.8-.2 1.6-.3 2.5-.3 1.5.1 2.6.4 3.4 1.1zm-2.9 7.3c.4-.3.7-.6.8-1v-.9h-2.1c-1 0-1.5.4-1.5 1.1 0 .4.1.7.4.9.3.2.6.3 1.1.3.4 0 .9-.1 1.3-.4z" class="st0"/><path id="path1521" d="M357.9 75.1c.4.4.5.8.5 1.4 0 .5-.2 1-.5 1.4-.3.4-.8.5-1.3.5s-1-.2-1.4-.5c-.4-.3-.5-.8-.5-1.4 0-.6.2-1 .5-1.4.3-.4.8-.5 1.4-.5.6 0 1 .1 1.3.5zm-3.1 4.4h3.5v10.8h-3.5z" class="st0"/><path id="path1523" d="M371.1 80.5c.7.7 1.1 1.8 1.1 3v6.8h-3.5v-5.8c0-.6-.2-1.1-.5-1.5-.3-.4-.8-.5-1.3-.5-.6 0-1.1.2-1.5.6-.4.4-.6.9-.7 1.5v5.7h-3.6V79.5h3.6v1.8c.4-.6.9-1.1 1.5-1.4.6-.3 1.3-.5 2.1-.5 1.1 0 2 .4 2.8 1.1z" class="st0"/></g></g></g></svg>