<svg xmlns="http://www.w3.org/2000/svg" xmlns:xlink="http://www.w3.org/1999/xlink" width="1044.524" height="316.088" viewBox="0 0 276.364 83.632"><defs><linearGradient id="b" x1="0" x2="1" y1="0" y2="0" gradientTransform="scale(-9.70292 9.70292) rotate(65.592 -10.479 -6.477)" gradientUnits="userSpaceOnUse" spreadMethod="pad"><stop offset="0" style="stop-opacity:1;stop-color:#3194a2"/><stop offset="1" style="stop-opacity:1;stop-color:#03707f"/></linearGradient><linearGradient id="a" x1="0" x2="1" y1="0" y2="0" gradientTransform="matrix(4.38075 9.0585 9.0585 -4.38075 74.08 55.316)" gradientUnits="userSpaceOnUse" spreadMethod="pad"><stop offset="0" style="stop-opacity:1;stop-color:#3194a2"/><stop offset="1" style="stop-opacity:1;stop-color:#03707f"/></linearGradient><linearGradient xlink:href="#a" id="c" x1="0" x2="1" y1="0" y2="0" gradientTransform="matrix(4.38075 9.0585 9.0585 -4.38075 74.08 55.316)" gradientUnits="userSpaceOnUse" spreadMethod="pad"/><linearGradient xlink:href="#b" id="d" x1="0" x2="1" y1="0" y2="0" gradientTransform="scale(-9.70292 9.70292) rotate(65.592 -10.479 -6.477)" gradientUnits="userSpaceOnUse" spreadMethod="pad"/></defs><path d="M76.594 75.111 66.165 53.407a.419.419 0 0 1 .378-.6h13.12c.162 0 .308.091.378.237l4.134 8.593a.418.418 0 0 1-.005.376l-6.827 13.11a.413.413 0 0 1-.371.226.413.413 0 0 1-.378-.238" style="fill:url(#c);stroke:none" transform="matrix(1.76328 0 0 -1.76328 -116.593 166.773)"/><path d="m113.897 75.123-6.827-13.11a.422.422 0 0 1-.006-.376l4.136-8.593a.414.414 0 0 1 .377-.237h13.12c.309 0 .512.322.378.6l-10.429 21.704a.413.413 0 0 1-.377.238.414.414 0 0 1-.372-.226" style="fill:url(#d);stroke:none" transform="matrix(1.76328 0 0 -1.76328 -116.593 166.773)"/><path d="M0 0h-14.188a.725.725 0 0 1-.624-.356l-4.983-8.439a.724.724 0 0 0-1.262.027l-11.322 21.155a.723.723 0 0 1-.638.383h-15.095a.724.724 0 0 1-.62-1.098l27.669-45.981a.724.724 0 0 1 1.237-.006L.617-1.104A.725.725 0 0 1 0 0" style="fill:#39b3c2;fill-opacity:1;fill-rule:nonzero;stroke:none" transform="matrix(1.76328 0 0 -1.76328 87.75 22.517)"/><path d="M0 0h1.775v-12.263h5.877v-1.49H0Z" style="fill:#414142;fill-opacity:1;fill-rule:nonzero;stroke:none" transform="matrix(1.87775 0 0 -1.87775 122.328 32.25)"/><path d="M0 0c.021 1.142-.469 2.918-2.489 2.918-1.816 0-2.612-1.674-2.755-2.918Zm-5.264-1.286c.04-2.428 1.591-3.427 3.387-3.427 1.285 0 2.061.224 2.734.509l.306-1.285c-.632-.286-1.714-.612-3.285-.612-3.04 0-4.856 2-4.856 4.978 0 2.98 1.754 5.326 4.631 5.326 3.224 0 4.082-2.836 4.082-4.652 0-.368-.041-.653-.062-.837z" style="fill:#414142;fill-opacity:1;fill-rule:nonzero;stroke:none" transform="matrix(1.87775 0 0 -1.87775 151.525 47)"/><path d="M0 0c-1.959.041-4.183-.306-4.183-2.224 0-1.163.775-1.714 1.694-1.714 1.285 0 2.101.816 2.387 1.653.061.183.102.388.102.571Zm.265-5.04L.122-3.795H.061C-.49-4.57-1.551-5.264-2.958-5.264c-2 0-3.021 1.408-3.021 2.836 0 2.387 2.123 3.693 5.938 3.673v.204c0 .816-.224 2.285-2.244 2.285-.918 0-1.878-.286-2.571-.734l-.408 1.183c.816.53 1.999.878 3.244.878C1 5.061 1.735 3 1.735 1.02v-3.693c0-.857.04-1.693.163-2.367z" style="fill:#414142;fill-opacity:1;fill-rule:nonzero;stroke:none" transform="matrix(1.87775 0 0 -1.87775 168.729 48.61)"/><path d="M0 0c0 1.02-.02 1.857-.081 2.673H1.51l.102-1.632h.041c.49.938 1.632 1.856 3.265 1.856 1.367 0 3.489-.816 3.489-4.203v-5.897H6.611v5.693c0 1.591-.592 2.918-2.285 2.918-1.184 0-2.102-.837-2.408-1.837-.082-.224-.122-.53-.122-.836v-5.938H0Z" style="fill:#414142;fill-opacity:1;fill-rule:nonzero;stroke:none" transform="matrix(1.87775 0 0 -1.87775 177.428 44.548)"/><path d="M0 0c-.102 1.918-.225 4.224-.204 5.938h-.061A82.93 82.93 0 0 0-1.999.714l-2.429-6.672h-1.346L-7.998.592C-8.651 2.53-9.202 4.306-9.59 5.938h-.041c-.041-1.714-.143-4.02-.265-6.081l-.367-5.897h-1.694l.959 13.753h2.265l2.347-6.652c.571-1.693 1.04-3.203 1.387-4.632h.061c.347 1.388.837 2.898 1.449 4.632l2.448 6.652h2.265L2.081-6.04H.347Z" style="fill:#414142;fill-opacity:1;fill-rule:nonzero;stroke:none" transform="matrix(1.87775 0 0 -1.87775 220.572 46.733)"/><path d="M22.984 68.686h4.355v23.951h-4.355zm4.85-6.73c.048 1.484-1.04 2.673-2.772 2.673-1.533 0-2.622-1.189-2.622-2.673 0-1.535 1.138-2.72 2.721-2.72 1.632 0 2.673 1.185 2.673 2.72" style="fill:#414142;fill-opacity:1;fill-rule:nonzero;stroke:none;stroke-width:2.42517" transform="matrix(.77428 0 0 .77428 212.165 -13.653)"/><path d="M0 0c0 1.02-.02 1.857-.082 2.673H1.51l.102-1.632h.041c.489.938 1.632 1.856 3.265 1.856 1.367 0 3.489-.816 3.489-4.203v-5.897H6.611v5.693c0 1.591-.592 2.918-2.286 2.918-1.183 0-2.101-.837-2.407-1.837-.082-.224-.122-.53-.122-.836v-5.938H0Z" style="fill:#414142;fill-opacity:1;fill-rule:nonzero;stroke:none" transform="matrix(1.87775 0 0 -1.87775 238.927 44.548)"/><path d="M0 0c0 .225-.02.531-.081.755-.266 1.143-1.245 2.081-2.592 2.081-1.857 0-2.958-1.632-2.958-3.815 0-2 .979-3.652 2.917-3.652 1.204 0 2.306.795 2.633 2.142.061.245.081.49.081.775Zm1.796 8.631V-3.305c0-.878.02-1.877.082-2.551H.265L.184-4.142H.143C-.408-5.244-1.612-6.08-3.224-6.08c-2.387 0-4.223 2.02-4.223 5.019-.021 3.285 2.02 5.305 4.427 5.305 1.51 0 2.531-.714 2.979-1.51H0v5.897z" style="fill:#414142;fill-opacity:1;fill-rule:nonzero;stroke:none" transform="matrix(1.87775 0 0 -1.87775 272.837 47.078)"/><path d="M0 0h-1.142v-1.06H.131v-.318h-1.653v2.939H.065v-.318h-1.207V.314H0Z" style="fill:#6d6f71;fill-opacity:1;fill-rule:nonzero;stroke:none" transform="matrix(1.87775 0 0 -1.87775 125.241 70.542)"/><path d="M0 0h1.583v-.318H.379v-.977h1.112v-.314H.379v-1.33H0Z" style="fill:#6d6f71;fill-opacity:1;fill-rule:nonzero;stroke:none" transform="matrix(1.87775 0 0 -1.87775 129.688 67.61)"/><path d="M0 0h1.583v-.318H.379v-.977h1.112v-.314H.379v-1.33H0Z" style="fill:#6d6f71;fill-opacity:1;fill-rule:nonzero;stroke:none" transform="matrix(1.87775 0 0 -1.87775 136.95 67.61)"/><path d="M0 0h-1.142v-1.06H.131v-.318h-1.653v2.939H.065v-.318h-1.207V.314H0Z" style="fill:#6d6f71;fill-opacity:1;fill-rule:nonzero;stroke:none" transform="matrix(1.87775 0 0 -1.87775 147.07 70.542)"/><path d="M0 0c-.14-.07-.419-.14-.776-.14-.829 0-1.452.524-1.452 1.487 0 .92.623 1.544 1.535 1.544.366 0 .597-.079.697-.131l-.091-.31a1.38 1.38 0 0 1-.593.122c-.689 0-1.147-.44-1.147-1.212 0-.719.414-1.181 1.129-1.181.231 0 .467.048.619.122z" style="fill:#6d6f71;fill-opacity:1;fill-rule:nonzero;stroke:none" transform="matrix(1.87775 0 0 -1.87775 155.372 72.949)"/><path d="M0 0h-.894v.323h2.176V0H.384v-2.616H0Z" style="fill:#6d6f71;fill-opacity:1;fill-rule:nonzero;stroke:none" transform="matrix(1.87775 0 0 -1.87775 160.817 68.216)"/><path d="M-57.265 112.08h-.92v-7.128h.92z" style="fill:#6d6f71;fill-opacity:1;fill-rule:nonzero;stroke:none;stroke-width:2.42517" transform="matrix(.77428 0 0 .77428 212.165 -13.653)"/><path d="m0 0-.959 2.939h.41l.457-1.448C.035 1.094.144.737.222.392h.009c.083.34.205.711.336 1.095l.497 1.452h.405L.419 0Z" style="fill:#6d6f71;fill-opacity:1;fill-rule:nonzero;stroke:none" transform="matrix(1.87775 0 0 -1.87775 173.558 73.129)"/><path d="M0 0h-1.142v-1.06H.131v-.318h-1.653v2.939H.065v-.318h-1.207V.314H0Z" style="fill:#6d6f71;fill-opacity:1;fill-rule:nonzero;stroke:none" transform="matrix(1.87775 0 0 -1.87775 183.047 70.542)"/><path d="M0 0c.096-.017.235-.022.384-.022.811 0 1.251.454 1.251 1.247.004.694-.388 1.134-1.19 1.134C.248 2.359.1 2.341 0 2.32Zm-.379 2.599c.231.035.505.061.806.061.545 0 .933-.127 1.191-.367.261-.239.414-.579.414-1.055 0-.479-.149-.872-.423-1.142C1.334-.179.881-.327.31-.327c-.271 0-.498.013-.689.035z" style="fill:#6d6f71;fill-opacity:1;fill-rule:nonzero;stroke:none" transform="matrix(1.87775 0 0 -1.87775 193.217 72.564)"/><path d="M0 0h-1.142v-1.06H.131v-.318h-1.653v2.939H.065v-.318h-1.207V.314H0Z" style="fill:#6d6f71;fill-opacity:1;fill-rule:nonzero;stroke:none" transform="matrix(1.87775 0 0 -1.87775 204.09 70.542)"/><path d="m0 0-.959 2.939h.41l.457-1.448C.035 1.094.144.737.222.392h.009c.083.34.205.711.336 1.095l.497 1.452h.405L.419 0Z" style="fill:#6d6f71;fill-opacity:1;fill-rule:nonzero;stroke:none" transform="matrix(1.87775 0 0 -1.87775 209.822 73.129)"/><path d="M0 0h-1.142v-1.06H.131v-.318h-1.653v2.939H.065v-.318h-1.207V.314H0Z" style="fill:#6d6f71;fill-opacity:1;fill-rule:nonzero;stroke:none" transform="matrix(1.87775 0 0 -1.87775 219.311 70.542)"/><path d="M0 0h.379v-2.62h1.256v-.319H0Z" style="fill:#6d6f71;fill-opacity:1;fill-rule:nonzero;stroke:none" transform="matrix(1.87775 0 0 -1.87775 223.758 67.61)"/><path d="M0 0c0-.628.34-1.19.937-1.19.602 0 .942.553.942 1.221 0 .584-.305 1.194-.937 1.194C.314 1.225 0 .645 0 0m2.28.048C2.28-.964 1.666-1.5.916-1.5.14-1.5-.405-.898-.405-.009c0 .933.579 1.544 1.364 1.544.803 0 1.321-.615 1.321-1.487" style="fill:#6d6f71;fill-opacity:1;fill-rule:nonzero;stroke:none" transform="matrix(1.87775 0 0 -1.87775 231.012 70.402)"/><path d="M0 0c.083-.022.187-.031.314-.031.458 0 .737.223.737.628 0 .388-.275.576-.694.576-.165 0-.292-.013-.357-.031Zm-.379 1.417c.183.031.423.057.728.057.375 0 .649-.088.824-.244A.793.793 0 0 0 1.43.615c0-.266-.078-.476-.227-.628-.2-.214-.527-.323-.898-.323A1.35 1.35 0 0 0 0-.31v-1.177h-.379z" style="fill:#6d6f71;fill-opacity:1;fill-rule:nonzero;stroke:none" transform="matrix(1.87775 0 0 -1.87775 240.207 70.337)"/><path d="M0 0c-.022.41-.048.903-.044 1.269h-.013A17.24 17.24 0 0 0-.427.153l-.519-1.426h-.288L-1.709.126c-.14.415-.257.794-.34 1.143h-.009C-2.067.903-2.088.41-2.115-.03l-.078-1.261h-.362l.205 2.939h.484l.501-1.421c.122-.362.223-.685.297-.99h.013c.074.297.179.619.309.99l.524 1.421h.484l.183-2.939H.074Z" style="fill:#6d6f71;fill-opacity:1;fill-rule:nonzero;stroke:none" transform="matrix(1.87775 0 0 -1.87775 251.678 70.705)"/><path d="M0 0h-1.142v-1.06H.131v-.318h-1.653v2.939H.065v-.318h-1.207V.314H0Z" style="fill:#6d6f71;fill-opacity:1;fill-rule:nonzero;stroke:none" transform="matrix(1.87775 0 0 -1.87775 259.743 70.542)"/><path d="M0 0v2.939h.414l.942-1.487c.218-.345.388-.654.528-.955l.008.004c-.035.393-.043.75-.043 1.208v1.23h.357V0h-.383L.889 1.491a9.475 9.475 0 0 0-.549.981l-.013-.004c.022-.371.03-.724.03-1.212V0Z" style="fill:#6d6f71;fill-opacity:1;fill-rule:nonzero;stroke:none" transform="matrix(1.87775 0 0 -1.87775 264.189 73.129)"/><path d="M0 0h-.894v.323h2.176V0H.384v-2.616H0Z" style="fill:#6d6f71;fill-opacity:1;fill-rule:nonzero;stroke:none" transform="matrix(1.87775 0 0 -1.87775 273.9 68.216)"/></svg>